SplineFontDB: 3.2
FontName: KidGames
FullName: Kid Games
FamilyName: Kid Games
Weight: Book
Copyright: Imagex 2020. All Rights Reserved
Version: 1.0
ItalicAngle: 0
UnderlinePosition: -292
UnderlineWidth: 150
Ascent: 1638
Descent: 410
InvalidEm: 0
sfntRevision: 0x00010000
LayerCount: 2
Layer: 0 1 "Warstwa t+AUIA-a" 1
Layer: 1 1 "Plan pierwszy" 0
XUID: [1021 1015 1369030597 3225]
StyleMap: 0x0040
FSType: 8
OS2Version: 3
OS2_WeightWidthSlopeOnly: 0
OS2_UseTypoMetrics: 0
CreationTime: 1576677364
ModificationTime: 1661814690
PfmFamily: 17
TTFWeight: 400
TTFWidth: 5
LineGap: 222
VLineGap: 0
Panose: 2 0 5 0 0 0 0 0 0 0
OS2TypoAscent: 1434
OS2TypoAOffset: 0
OS2TypoDescent: -410
OS2TypoDOffset: 0
OS2TypoLinegap: 205
OS2WinAscent: 2100
OS2WinAOffset: 0
OS2WinDescent: 418
OS2WinDOffset: 0
HheadAscent: 1716
HheadAOffset: 0
HheadDescent: -418
HheadDOffset: 0
OS2SubXSize: 1434
OS2SubYSize: 1331
OS2SubXOff: 0
OS2SubYOff: 283
OS2SupXSize: 1434
OS2SupYSize: 1331
OS2SupXOff: 0
OS2SupYOff: 977
OS2StrikeYSize: 102
OS2StrikeYPos: 530
OS2CapHeight: 1434
OS2XHeight: 1024
OS2Vendor: 'HL  '
OS2CodePages: 20000111.41000000
OS2UnicodeRanges: 800000a7.5000004a.00000000.00000000
Lookup: 258 0 0 "'kern' Kerning poziomy w +AUIA-aci+AUQA-skie w tablicy 0" { "Podtablica 'kern' Kerning poziomy w +AUIA-aci+AUQA-skie w tablicy 0"  } ['kern' ('latn' <'dflt' > ) ]
DEI: 91125
ShortTable: maxp 16
  1
  0
  238
  96
  7
  0
  0
  0
  0
  0
  0
  0
  0
  0
  0
  0
EndShort
LangName: 1033 "" "" "Regular" "Kid Games:Version 1.00" "" "" "" "" "" "IMAGEX" "This font was created using FontCreator 6.5 from High-Logic.com" "" "imagex-fonts.com" "Free for personal use ONLY"
LangName: 1027 "" "" "Normal"
LangName: 1029 "" "" "oby+AQ0A-ejn+AOkA"
LangName: 1030 "" "" "normal"
LangName: 1031 "" "" "Standard"
LangName: 1032 "" "" "+A5oDsQO9A78DvQO5A7oDrAAA"
LangName: 1034 "" "" "Normal"
LangName: 1035 "" "" "Normaali"
LangName: 1036 "" "" "Normal"
LangName: 1038 "" "" "Norm+AOEA-l"
LangName: 1040 "" "" "Normale"

StartChar: .notdef
Encoding: 65536 -1 0
Width: 1024
GlyphClass: 1
Flags: W
LayerCount: 2
Fore
SplineSet
100 0 m 1,0,-1
 100 1434 l 1,1,-1
 924 1434 l 1,2,-1
 924 0 l 1,3,-1
 100 0 l 1,0,-1
150 50 m 1,4,-1
 874 50 l 1,5,-1
 874 1384 l 1,6,-1
 150 1384 l 1,7,-1
 150 50 l 1,4,-1
325 1148 m 1,8,9
 356 1176 356 1176 383 1191 c 0,10,11
 436 1221 436 1221 495 1221 c 0,12,13
 587 1221 587 1221 643 1173.5 c 128,-1,14
 699 1126 699 1126 699 1046 c 0,15,16
 699 997 699 997 676 947.5 c 128,-1,17
 653 898 653 898 589 818 c 0,18,19
 526 738 526 738 490 686 c 128,-1,20
 454 634 454 634 454 587 c 0,21,22
 454 549 454 549 478 454 c 1,23,-1
 446 454 l 1,24,25
 411 551 411 551 411 602 c 0,26,27
 411 678 411 678 492.5 820 c 128,-1,28
 574 962 574 962 574 1037 c 0,29,30
 574 1094 574 1094 541 1127 c 128,-1,31
 508 1160 508 1160 450 1160 c 0,32,33
 412 1160 412 1160 381 1143 c 0,34,35
 355 1128 355 1128 325 1103 c 1,36,-1
 325 1148 l 1,8,9
389 334 m 2,37,-1
 446 392 l 2,38,39
 457 402 457 402 466 402 c 0,40,41
 476 402 476 402 488 391 c 2,42,-1
 544 331 l 2,43,44
 553 320 553 320 553 311 c 0,45,46
 553 300 553 300 543 289 c 2,47,-1
 487 227 l 2,48,49
 473 213 473 213 466 213 c 0,50,51
 455 213 455 213 446 223 c 2,52,-1
 385 294 l 2,53,54
 378 303 378 303 378 312 c 0,55,56
 378 322 378 322 389 334 c 2,37,-1
EndSplineSet
Validated: 1
EndChar

StartChar: exclam
Encoding: 33 33 4
Width: 660
GlyphClass: 1
Flags: W
LayerCount: 2
Fore
SplineSet
521 376 m 0,0,1
 261 383 261 383 99 374 c 0,2,3
 69 373 69 373 59 330 c 0,4,5
 30 159 30 159 59 46 c 0,6,7
 65 12 65 12 110 -5 c 1,8,9
 314 -51 314 -51 551 -4 c 1,10,11
 575 5 575 5 576 38 c 0,12,13
 597 213 597 213 583 341 c 0,14,15
 578 374 578 374 521 376 c 0,0,1
531 481 m 0,17,18
 579 800 579 800 583 1431 c 0,19,20
 583 1448 583 1448 563 1453 c 0,21,22
 325 1473 325 1473 86 1455 c 0,23,24
 44 1449 44 1449 43 1428 c 0,25,26
 44 908 44 908 106 478 c 0,27,28
 106 455 106 455 135 450 c 0,29,30
 234 435 234 435 475 452 c 0,31,16
 528 457 528 457 531 481 c 0,17,18
EndSplineSet
Validated: 41
EndChar

StartChar: quotedbl
Encoding: 34 34 5
Width: 1247
GlyphClass: 1
Flags: W
LayerCount: 2
Fore
SplineSet
577 1429 m 1,1,2
 568 1480 568 1480 544 1489 c 1,3,4
 307 1536 307 1536 103 1490 c 1,5,6
 58 1473 58 1473 52 1439 c 0,7,8
 23 1326 23 1326 49 1162 c 0,9,10
 59 1119 59 1119 92 1111 c 1,11,12
 157 1107 157 1107 239 1106 c 1,13,14
 229 1054 229 1054 196 957 c 0,15,16
 183 923 183 923 211 915 c 1,17,18
 527 934 527 934 565 1088 c 1,19,20
 591 1167 591 1167 583 1300 c 0,21,0
 583 1362 583 1362 577 1429 c 1,1,2
1167 1429 m 1,23,24
 1158 1480 1158 1480 1134 1489 c 1,25,26
 897 1536 897 1536 693 1490 c 1,27,28
 648 1473 648 1473 642 1439 c 0,29,30
 613 1326 613 1326 639 1162 c 0,31,32
 649 1119 649 1119 682 1111 c 1,33,34
 747 1107 747 1107 829 1106 c 1,35,36
 819 1054 819 1054 786 957 c 0,37,38
 773 923 773 923 801 915 c 1,39,40
 1117 934 1117 934 1155 1088 c 1,41,42
 1181 1167 1181 1167 1173 1300 c 0,43,22
 1173 1362 1173 1362 1167 1429 c 1,23,24
EndSplineSet
Validated: 41
EndChar

StartChar: numbersign
Encoding: 35 35 6
Width: 1734
GlyphClass: 1
Flags: W
LayerCount: 2
Fore
SplineSet
73 656 m 0,1,2
 48 656 48 656 41 641 c 0,3,4
 10 487 10 487 38 343 c 0,5,6
 46 312 46 312 78 312 c 2,7,-1
 151 312 l 1,8,9
 111 185 111 185 65 42 c 1,10,11
 50 13 50 13 87 2 c 1,12,13
 315 -20 315 -20 556 -2 c 1,14,15
 597 6 597 6 610 39 c 1,16,17
 647 182 647 182 676 311 c 1,18,-1
 808 311 l 1,19,20
 769 184 769 184 723 42 c 1,21,22
 708 13 708 13 745 2 c 1,23,24
 973 -20 973 -20 1214 -2 c 1,25,26
 1255 6 1255 6 1268 39 c 1,27,28
 1305 183 1305 183 1335 313 c 1,29,30
 1410 313 1410 313 1481 314 c 0,31,32
 1516 315 1516 315 1522 336 c 0,33,34
 1552 446 1552 446 1527 622 c 0,35,36
 1522 660 1522 660 1484 662 c 0,37,38
 1446 662 1446 662 1405 663 c 1,39,40
 1406 672 1406 672 1408 682 c 0,41,42
 1416 735 1416 735 1425 786 c 1,43,44
 1502 786 1502 786 1574 787 c 0,45,46
 1609 788 1609 788 1615 809 c 0,47,48
 1645 918 1645 918 1620 1095 c 0,49,50
 1615 1133 1615 1133 1578 1135 c 0,51,52
 1539 1135 1539 1135 1497 1136 c 1,53,54
 1535 1273 1535 1273 1561 1385 c 0,55,56
 1570 1431 1570 1431 1503 1448 c 1,57,58
 1254 1469 1254 1469 1114 1441 c 1,59,60
 1081 1428 1081 1428 1076 1406 c 0,61,62
 1050 1286 1050 1286 1019 1137 c 1,63,64
 932 1136 932 1136 839 1136 c 1,65,66
 877 1273 877 1273 903 1385 c 0,67,68
 912 1431 912 1431 845 1448 c 1,69,70
 596 1469 596 1469 456 1441 c 1,71,72
 423 1428 423 1428 418 1406 c 0,73,74
 391 1284 391 1284 360 1131 c 1,75,76
 266 1130 266 1130 166 1129 c 0,77,78
 141 1129 141 1129 135 1114 c 0,79,80
 103 960 103 960 131 816 c 0,81,82
 139 785 139 785 171 785 c 2,83,-1
 287 785 l 1,84,85
 271 725 271 725 253 658 c 1,86,0
 165 657 165 657 73 656 c 0,1,2
945 784 m 1,87,88
 930 727 930 727 912 664 c 1,89,90
 833 663 833 663 747 663 c 1,91,92
 748 672 748 672 750 682 c 0,93,94
 758 734 758 734 766 784 c 1,95,-1
 945 784 l 1,87,88
EndSplineSet
Validated: 41
EndChar

StartChar: dollar
Encoding: 36 36 7
Width: 1434
GlyphClass: 1
Flags: W
LayerCount: 2
Fore
SplineSet
253 1435 m 1,1,2
 108 1403 108 1403 59 1290 c 1,3,4
 -42 927 -42 927 120 664 c 1,5,6
 172 595 172 595 286 570 c 0,7,8
 492 521 492 521 818 532 c 1,9,10
 890 520 890 520 853 474 c 0,11,12
 829 445 829 445 787 436 c 1,13,14
 626 421 626 421 145 461 c 1,15,16
 107 469 107 469 94 449 c 1,17,18
 49 179 49 179 45 79 c 0,19,20
 41 65 41 65 69 54 c 1,21,22
 234 21 234 21 390 2 c 1,23,24
 392 -53 392 -53 402 -116 c 0,25,26
 412 -159 412 -159 445 -167 c 1,27,28
 607 -176 607 -176 867 -169 c 0,29,30
 923 -169 923 -169 930 -132 c 0,31,32
 936 -78 936 -78 936 -18 c 1,33,34
 1025 -12 1025 -12 1110 -1 c 1,35,36
 1255 30 1255 30 1304 144 c 1,37,38
 1406 507 1406 507 1244 770 c 1,39,40
 1192 839 1192 839 1078 863 c 0,41,42
 776 931 776 931 583 894 c 1,43,44
 514 886 514 886 523 959 c 0,45,46
 528 991 528 991 576 998 c 0,47,48
 737 1012 737 1012 1218 973 c 1,49,50
 1257 965 1257 965 1269 984 c 1,51,52
 1315 1255 1315 1255 1319 1354 c 0,53,54
 1323 1369 1323 1369 1294 1379 c 0,55,56
 1108 1417 1108 1417 934 1436 c 1,57,58
 933 1468 933 1468 930 1502 c 0,59,60
 921 1553 921 1553 897 1562 c 1,61,62
 660 1609 660 1609 456 1563 c 1,63,64
 411 1546 411 1546 405 1512 c 0,65,66
 397 1482 397 1482 394 1449 c 1,67,0
 322 1444 322 1444 253 1435 c 1,1,2
EndSplineSet
Validated: 41
EndChar

StartChar: percent
Encoding: 37 37 8
Width: 1860
GlyphClass: 1
Flags: W
LayerCount: 2
Fore
SplineSet
1157 1408 m 0,1,2
 1039 1235 1039 1235 846 972 c 1,3,4
 515 540 515 540 97 44 c 1,5,6
 67 15 67 15 99 4 c 1,7,8
 315 -18 315 -18 582 0 c 1,9,10
 628 8 628 8 658 41 c 1,11,12
 926 410 926 410 1113 684 c 0,13,14
 1284 937 1284 937 1432 1131 c 0,15,16
 1544 1272 1544 1272 1631 1387 c 0,17,18
 1664 1433 1664 1433 1605 1450 c 1,19,20
 1367 1471 1367 1471 1213 1443 c 1,21,0
 1173 1430 1173 1430 1157 1408 c 0,1,2
51 779 m 0,22,23
 -10 869 -10 869 -1 1260 c 1,24,25
 7 1365 7 1365 108 1424 c 0,26,27
 209 1479 209 1479 494 1451 c 0,28,29
 618 1436 618 1436 641 1228 c 1,30,31
 661 919 661 919 594 790 c 1,32,33
 539 694 539 694 303 696 c 0,34,35
 102 700 102 700 51 779 c 0,22,23
243 1010 m 0,36,37
 256 960 256 960 290 951 c 0,38,39
 386 936 386 936 397 981 c 1,40,41
 415 1175 415 1175 368 1195 c 0,42,43
 306 1219 306 1219 251 1195 c 0,44,45
 212 1175 212 1175 243 1010 c 0,36,37
1440 738 m 1,47,48
 1676 739 1676 739 1731 643 c 1,49,50
 1798 515 1798 515 1778 205 c 1,51,52
 1755 -3 1755 -3 1631 -18 c 0,53,54
 1346 -45 1346 -45 1245 9 c 1,55,56
 1144 68 1144 68 1136 173 c 1,57,58
 1127 565 1127 565 1188 654 c 0,59,46
 1239 733 1239 733 1440 738 c 1,47,48
1388 238 m 0,61,62
 1443 214 1443 214 1505 238 c 0,63,64
 1552 258 1552 258 1534 452 c 1,65,66
 1523 498 1523 498 1427 483 c 0,67,68
 1393 474 1393 474 1380 423 c 0,69,60
 1349 258 1349 258 1388 238 c 0,61,62
EndSplineSet
Validated: 41
EndChar

StartChar: ampersand
Encoding: 38 38 9
Width: 1377
GlyphClass: 1
Flags: W
LayerCount: 2
Fore
SplineSet
263 1387 m 0,1,2
 157 1363 157 1363 128 1167 c 0,3,4
 54 728 54 728 199 699 c 1,5,6
 165 680 165 680 142 653 c 0,7,8
 -20 419 -20 419 79 108 c 1,9,10
 144 0 144 0 273 -21 c 0,11,12
 331 -28 331 -28 390 -32 c 1,13,14
 393 -90 393 -90 405 -138 c 0,15,16
 411 -172 411 -172 456 -189 c 1,17,18
 660 -235 660 -235 897 -188 c 1,19,20
 921 -179 921 -179 930 -128 c 1,21,22
 935 -74 935 -74 936 -23 c 1,23,24
 1105 -6 1105 -6 1282 28 c 0,25,26
 1310 37 1310 37 1307 50 c 0,27,28
 1299 165 1299 165 1238 412 c 1,29,30
 1226 429 1226 429 1187 422 c 0,31,32
 759 335 759 335 598 364 c 0,33,34
 557 372 557 372 545 398 c 0,35,36
 521 459 521 459 572 502 c 0,37,38
 592 520 592 520 620 531 c 0,39,40
 650 540 650 540 880 538 c 1,41,-1
 880 772 l 1,42,43
 762 784 762 784 631 817 c 0,44,45
 603 822 603 822 561 863 c 1,46,47
 518 915 518 915 554 1011 c 0,48,49
 568 1053 568 1053 666 1057 c 0,50,51
 775 1061 775 1061 1146 907 c 0,52,53
 1172 895 1172 895 1190 915 c 0,54,55
 1255 992 1255 992 1291 1248 c 0,56,57
 1291 1269 1291 1269 1261 1286 c 1,58,59
 1090 1344 1090 1344 936 1378 c 1,60,61
 935 1437 935 1437 930 1502 c 1,62,63
 921 1553 921 1553 897 1562 c 1,64,65
 660 1609 660 1609 456 1563 c 1,66,67
 411 1546 411 1546 405 1512 c 0,68,69
 393 1467 393 1467 391 1413 c 1,70,0
 324 1404 324 1404 263 1387 c 0,1,2
EndSplineSet
Validated: 41
EndChar

StartChar: quotesingle
Encoding: 39 39 10
Width: 658
GlyphClass: 1
Flags: W
LayerCount: 2
Fore
SplineSet
577 1429 m 1,1,2
 568 1480 568 1480 544 1489 c 1,3,4
 307 1536 307 1536 103 1490 c 1,5,6
 58 1473 58 1473 52 1439 c 0,7,8
 23 1326 23 1326 49 1162 c 0,9,10
 59 1119 59 1119 92 1111 c 1,11,12
 157 1107 157 1107 239 1106 c 1,13,14
 229 1054 229 1054 196 957 c 0,15,16
 183 923 183 923 211 915 c 1,17,18
 527 934 527 934 565 1088 c 1,19,20
 591 1167 591 1167 583 1300 c 0,21,0
 583 1362 583 1362 577 1429 c 1,1,2
EndSplineSet
Validated: 41
EndChar

StartChar: parenleft
Encoding: 40 40 11
Width: 979
GlyphClass: 1
Flags: W
LayerCount: 2
Fore
SplineSet
533 233 m 1,1,2
 639 178 639 178 812 215 c 1,3,4
 838 225 838 225 847 207 c 0,5,6
 879 126 879 126 866 -135 c 1,7,8
 870 -160 870 -160 846 -171 c 1,9,10
 614 -235 614 -235 303 -157 c 0,11,12
 158 -121 158 -121 92 -19 c 1,13,14
 -15 176 -15 176 53 1254 c 1,15,16
 93 1520 93 1520 259 1570 c 1,17,18
 609 1661 609 1661 832 1604 c 1,19,20
 868 1589 868 1589 863 1567 c 1,21,22
 871 1350 871 1350 846 1212 c 1,23,24
 830 1183 830 1183 798 1193 c 1,25,26
 633 1209 633 1209 535 1123 c 0,27,28
 501 1094 501 1094 498.5 680.5 c 128,-1,0
 496 267 496 267 533 233 c 1,1,2
EndSplineSet
Validated: 33
EndChar

StartChar: parenright
Encoding: 41 41 12
Width: 979
GlyphClass: 1
Flags: W
LayerCount: 2
Fore
SplineSet
363 1193 m 1,1,2
 257 1248 257 1248 84 1211 c 1,3,4
 58 1201 58 1201 49 1219 c 0,5,6
 17 1300 17 1300 30 1561 c 1,7,8
 26 1586 26 1586 50 1597 c 1,9,10
 282 1661 282 1661 593 1583 c 0,11,12
 738 1547 738 1547 804 1445 c 1,13,14
 911 1250 911 1250 843 172 c 1,15,16
 803 -94 803 -94 637 -144 c 1,17,18
 287 -235 287 -235 64 -178 c 1,19,20
 28 -163 28 -163 33 -141 c 1,21,22
 25 76 25 76 50 214 c 1,23,24
 66 243 66 243 98 233 c 1,25,26
 263 217 263 217 361 303 c 0,27,28
 395 332 395 332 397.5 745.5 c 128,-1,0
 400 1159 400 1159 363 1193 c 1,1,2
EndSplineSet
Validated: 33
EndChar

StartChar: asterisk
Encoding: 42 42 13
Width: 1115
GlyphClass: 1
Flags: W
LayerCount: 2
Fore
SplineSet
992 1192 m 0,1,2
 1004 1203 1004 1203 992 1220 c 0,3,4
 863 1380 863 1380 715 1505 c 0,5,6
 682 1531 682 1531 667 1517 c 0,7,8
 586 1438 586 1438 512 1365 c 1,9,10
 438 1437 438 1437 357 1515 c 0,11,12
 346 1526 346 1526 329 1515 c 0,13,14
 169 1386 169 1386 44 1237 c 0,15,16
 18 1205 18 1205 31 1190 c 0,17,18
 108 1111 108 1111 180 1037 c 1,19,20
 101 958 101 958 33 889 c 0,21,22
 18 873 18 873 36 849 c 0,23,24
 125 732 125 732 302 575 c 0,25,26
 339 541 339 541 358 556 c 0,27,28
 426 619 426 619 511 703 c 1,29,30
 590 624 590 624 660 556 c 0,31,32
 676 541 676 541 700 559 c 0,33,34
 817 647 817 647 974 824 c 0,35,36
 1008 862 1008 862 993 881 c 0,37,38
 929 950 929 950 843 1037 c 1,39,0
 914 1111 914 1111 992 1192 c 0,1,2
EndSplineSet
Validated: 9
EndChar

StartChar: plus
Encoding: 43 43 14
Width: 1057
GlyphClass: 1
Flags: W
LayerCount: 2
Fore
SplineSet
727 1165 m 0,1,2
 727 1181 727 1181 707 1185 c 0,3,4
 502 1205 502 1205 309 1187 c 0,5,6
 268 1182 268 1182 267 1162 c 0,7,8
 266 1049 266 1049 266 944 c 1,9,10
 164 942 164 942 51 939 c 0,11,12
 35 939 35 939 31 919 c 0,13,14
 11 714 11 714 29 521 c 0,15,16
 34 480 34 480 54 479 c 0,17,18
 165 478 165 478 268 478 c 1,19,20
 268 367 268 367 270 269 c 0,21,22
 271 247 271 247 300 243 c 0,23,24
 446 224 446 224 682 240 c 0,25,26
 733 243 733 243 735 267 c 0,27,28
 737 359 737 359 738 479 c 1,29,30
 849 480 849 480 947 482 c 0,31,32
 969 483 969 483 973 512 c 0,33,34
 992 658 992 658 976 894 c 0,35,36
 973 945 973 945 949 947 c 0,37,38
 855 949 855 949 732 950 c 1,39,0
 730 1052 730 1052 727 1165 c 0,1,2
EndSplineSet
Validated: 41
EndChar

StartChar: comma
Encoding: 44 44 15
Width: 658
GlyphClass: 1
Flags: W
LayerCount: 2
Fore
SplineSet
577 300 m 1,1,2
 568 351 568 351 544 360 c 1,3,4
 307 407 307 407 103 361 c 1,5,6
 58 344 58 344 52 310 c 0,7,8
 23 197 23 197 49 33 c 0,9,10
 59 -10 59 -10 92 -18 c 1,11,12
 157 -22 157 -22 239 -23 c 1,13,14
 229 -75 229 -75 196 -172 c 0,15,16
 183 -206 183 -206 211 -214 c 1,17,18
 527 -195 527 -195 565 -41 c 1,19,20
 591 38 591 38 583 171 c 0,21,0
 583 233 583 233 577 300 c 1,1,2
EndSplineSet
Validated: 41
EndChar

StartChar: hyphen
Encoding: 45 45 16
AltUni2: 0000ad.ffffffff.0
Width: 1057
GlyphClass: 1
Flags: W
LayerCount: 2
Fore
SplineSet
949 947 m 0,1,2
 648 955 648 955 51 939 c 0,3,4
 35 939 35 939 31 919 c 0,5,6
 11 714 11 714 29 521 c 0,7,8
 34 480 34 480 54 479 c 0,9,10
 593 476 593 476 947 482 c 0,11,12
 969 483 969 483 973 512 c 0,13,14
 992 658 992 658 976 894 c 0,15,0
 973 945 973 945 949 947 c 0,1,2
EndSplineSet
Validated: 41
EndChar

StartChar: period
Encoding: 46 46 17
Width: 658
GlyphClass: 1
Flags: W
LayerCount: 2
Fore
SplineSet
577 17 m 0,1,2
 590 143 590 143 577 300 c 1,3,4
 568 351 568 351 544 360 c 1,5,6
 307 407 307 407 103 361 c 1,7,8
 58 344 58 344 52 310 c 0,9,10
 23 197 23 197 49 33 c 0,11,12
 59 -10 59 -10 92 -18 c 1,13,14
 254 -27 254 -27 514 -20 c 0,15,0
 570 -20 570 -20 577 17 c 0,1,2
EndSplineSet
Validated: 41
EndChar

StartChar: slash
Encoding: 47 47 18
Width: 1246
GlyphClass: 1
Flags: W
LayerCount: 2
Fore
SplineSet
673 1408 m 0,1,2
 610 1235 610 1235 499 972 c 1,3,4
 304 540 304 540 42 44 c 1,5,6
 20 15 20 15 55 4 c 1,7,8
 278 -18 278 -18 541 0 c 1,9,10
 583 8 583 8 603 41 c 1,11,12
 756 410 756 410 857 684 c 0,13,14
 948 937 948 937 1035 1131 c 1,15,16
 1103 1272 1103 1272 1154 1387 c 0,17,18
 1172 1433 1172 1433 1108 1450 c 1,19,20
 864 1471 864 1471 718 1443 c 1,21,0
 682 1430 682 1430 673 1408 c 0,1,2
EndSplineSet
Validated: 41
EndChar

StartChar: zero
Encoding: 48 48 19
Width: 1903
GlyphClass: 1
Flags: W
LayerCount: 2
Fore
SplineSet
1517 1393 m 1,0,1
 1662 1357 1662 1357 1731 1204 c 0,2,3
 1816 1006 1816 1006 1770 349 c 1,4,5
 1729 68 1729 68 1564 33 c 1,6,7
 814 -58 814 -58 284 49 c 1,8,9
 204 70 204 70 153 142 c 1,10,11
 28 341 28 341 30 765 c 1,12,13
 40 1095 40 1095 121 1255 c 1,14,15
 157 1343 157 1343 284 1373 c 0,16,17
 905 1508 905 1508 1517 1393 c 1,0,1
1178 414 m 0,18,19
 1232 424 1232 424 1250 464 c 0,20,21
 1281 533 1281 533 1285 673 c 0,22,23
 1286 852 1286 852 1236 937 c 0,24,25
 1214 968 1214 968 1178 977 c 0,26,27
 946 1022 946 1022 663 980 c 0,28,29
 558 968 558 968 539 849 c 1,30,31
 520 570 520 570 557 486 c 0,32,33
 587 422 587 422 650 406 c 0,34,35
 898 357 898 357 1178 414 c 0,18,19
EndSplineSet
Validated: 33
EndChar

StartChar: one
Encoding: 49 49 20
Width: 856
GlyphClass: 1
Flags: W
LayerCount: 2
Fore
SplineSet
43 1049 m 0,1,2
 38 1004 38 1004 106 999 c 2,3,-1
 262 993 l 1,4,5
 269 484 269 484 292 42 c 0,6,7
 292 9 292 9 322 3 c 0,8,9
 421 -19 421 -19 661 5 c 0,10,11
 714 11 714 11 717 47 c 0,12,13
 735 504 735 504 739 1410 c 0,14,15
 740 1434 740 1434 719 1440 c 0,16,17
 511 1471 511 1471 303 1444 c 0,18,19
 277 1439 277 1439 262 1419 c 0,20,0
 65 1214 65 1214 43 1049 c 0,1,2
EndSplineSet
Validated: 41
EndChar

StartChar: two
Encoding: 50 50 21
Width: 1479
GlyphClass: 1
Flags: W
LayerCount: 2
Fore
SplineSet
21 362 m 0,0,1
 4 226 4 226 31 45 c 0,2,3
 38 8 38 8 64 7 c 0,4,5
 814 -13 814 -13 1286 8 c 0,6,7
 1316 9 1316 9 1321 37 c 0,8,9
 1345 174 1345 174 1320 394 c 0,10,11
 1314 441 1314 441 1282 443 c 0,12,13
 1105 440 1105 440 844 438 c 1,14,15
 983 511 983 511 1062 536 c 1,16,17
 1167 587 1167 587 1219 655 c 1,18,19
 1374 905 1374 905 1283 1184 c 1,20,21
 1182 1432 1182 1432 768 1460 c 1,22,23
 399 1490 399 1490 52 1266 c 1,24,25
 23 1256 23 1256 27 1241 c 0,26,27
 31 1143 31 1143 177 871 c 0,28,29
 189 852 189 852 228 860 c 1,30,31
 482 1027 482 1027 763 985 c 0,32,33
 804 976 804 976 816 946 c 0,34,35
 828 905 828 905 824 878 c 1,36,37
 825 845 825 845 788 823 c 1,38,39
 769 803 769 803 740 798 c 1,40,41
 591 747 591 747 460 720.5 c 128,-1,42
 329 694 329 694 238 638 c 1,43,44
 39 495 39 495 21 362 c 0,0,1
EndSplineSet
Validated: 41
EndChar

StartChar: three
Encoding: 51 51 22
Width: 1377
GlyphClass: 1
Flags: W
LayerCount: 2
Fore
SplineSet
1221 1167 m 0,1,2
 1192 1363 1192 1363 1086 1387 c 1,3,4
 698 1494 698 1494 88 1286 c 1,5,6
 58 1269 58 1269 58 1248 c 0,7,8
 94 992 94 992 159 915 c 0,9,10
 177 895 177 895 203 907 c 0,11,12
 574 1061 574 1061 683 1057 c 0,13,14
 781 1053 781 1053 795 1011 c 0,15,16
 831 915 831 915 788 863 c 1,17,18
 746 822 746 822 718 817 c 0,19,20
 587 784 587 784 469 772 c 1,21,-1
 469 538 l 1,22,23
 699 540 699 540 729 531 c 0,24,25
 757 520 757 520 777 502 c 0,26,27
 828 459 828 459 804 398 c 0,28,29
 792 372 792 372 751 364 c 0,30,31
 590 335 590 335 162 422 c 0,32,33
 123 429 123 429 111 412 c 1,34,35
 50 165 50 165 42 50 c 0,36,37
 39 37 39 37 67 28 c 0,38,39
 612 -76 612 -76 1076 -21 c 1,40,41
 1205 0 1205 0 1270 108 c 1,42,43
 1369 419 1369 419 1207 653 c 0,44,45
 1184 680 1184 680 1150 699 c 1,46,0
 1295 728 1295 728 1221 1167 c 0,1,2
EndSplineSet
Validated: 41
EndChar

StartChar: four
Encoding: 52 52 23
Width: 1516
GlyphClass: 1
Flags: W
LayerCount: 2
Fore
SplineSet
51 314 m 0,1,2
 57 274 57 274 77 272 c 0,3,4
 270 263 270 263 480 263 c 1,5,6
 477 143 477 143 500 54 c 0,7,8
 506 20 506 20 551 3 c 1,9,10
 755 -43 755 -43 992 4 c 1,11,12
 1016 13 1016 13 1025 64 c 1,13,14
 1035 182 1035 182 1035 279 c 1,15,16
 1204 289 1204 289 1383 303 c 0,17,18
 1405 305 1405 305 1409 332 c 0,19,20
 1427 475 1427 475 1419 688 c 0,21,22
 1416 739 1416 739 1392 740 c 0,23,24
 1107 747 1107 747 809 743 c 1,25,26
 1048 944 1048 944 1232 1138 c 0,27,28
 1251 1154 1251 1154 1221 1199 c 0,29,30
 1089 1391 1089 1391 967 1493 c 0,31,32
 947 1514 947 1514 927 1504 c 1,33,34
 461 1145 461 1145 45 767 c 0,35,36
 36 759 36 759 34 739 c 0,37,0
 7 508 7 508 51 314 c 0,1,2
EndSplineSet
Validated: 41
EndChar

StartChar: five
Encoding: 53 53 24
Width: 1423
GlyphClass: 1
Flags: W
LayerCount: 2
Fore
SplineSet
1240 1017 m 0,1,2
 1272 1018 1272 1018 1278 1067 c 0,3,4
 1303 1290 1303 1290 1279 1428 c 0,5,6
 1274 1456 1274 1456 1244 1458 c 0,7,8
 819 1469 819 1469 69 1449 c 0,9,10
 43 1448 43 1448 36 1409 c 0,11,12
 9 1227 9 1227 25 973 c 1,13,14
 48 692 48 692 129 593 c 1,15,16
 288 625 288 625 424 633.5 c 128,-1,17
 560 642 560 642 717 626 c 1,18,19
 747 628 747 628 770 613 c 1,20,21
 811 600 811 600 817 569 c 1,22,23
 827 545 827 545 825 503 c 0,24,25
 823 454 823 454 777 433 c 0,26,27
 513 321 513 321 177 446 c 1,28,29
 137 445 137 445 130 425 c 1,30,31
 30 258 30 258 15 113 c 0,32,33
 15 98 15 98 45 95 c 1,34,35
 543 -98 543 -98 896 9 c 1,36,37
 1274 129 1274 129 1316 385 c 1,38,39
 1350 691 1350 691 1151 864 c 0,40,41
 1085 917 1085 917 946 959 c 1,42,43
 736 1013 736 1013 541 952 c 1,44,45
 542 986 542 986 537 1010 c 1,46,0
 953 1015 953 1015 1240 1017 c 0,1,2
EndSplineSet
Validated: 41
EndChar

StartChar: six
Encoding: 54 54 25
Width: 1377
GlyphClass: 1
Flags: W
LayerCount: 2
Fore
SplineSet
813 404 m 1,0,1
 703 387 703 387 560 411 c 1,2,3
 529 494 529 494 537 587 c 1,4,5
 577 634 577 634 824 598 c 1,6,7
 887 584 887 584 905 564 c 1,8,9
 938 541 938 541 926 448 c 1,10,11
 913 415 913 415 813 404 c 1,0,1
68 1195 m 1,12,13
 -2 622 -2 622 114 110 c 0,14,15
 127 49 127 49 155 29 c 1,16,17
 262 -22 262 -22 597 -29 c 1,18,19
 1070 -13 1070 -13 1201 69 c 1,20,21
 1302 111 1302 111 1322 218 c 1,22,23
 1374 627 1374 627 1299 744 c 0,24,25
 1251 817 1251 817 1148 844 c 1,26,27
 893 892 893 892 624 878 c 0,28,29
 566 873 566 873 519 864 c 1,30,31
 505 928 505 928 519 1018 c 1,32,33
 534 1060 534 1060 640 1064 c 0,34,35
 758 1068 758 1068 1195 966 c 1,36,37
 1223 954 1223 954 1243 974 c 0,38,39
 1313 1051 1313 1051 1352 1329 c 0,40,41
 1352 1350 1352 1350 1319 1367 c 1,42,43
 658 1575 658 1575 237 1468 c 1,44,45
 110 1441 110 1441 68 1195 c 1,12,13
EndSplineSet
Validated: 41
EndChar

StartChar: seven
Encoding: 55 55 26
Width: 1388
GlyphClass: 1
Flags: W
LayerCount: 2
Fore
SplineSet
1288 1389 m 0,1,2
 1283 1430 1283 1430 1263 1431 c 0,3,4
 688 1474 688 1474 72 1427 c 0,5,6
 50 1425 50 1425 45 1398 c 0,7,8
 23 1256 23 1256 26 1043 c 0,9,10
 28 992 28 992 52 991 c 0,11,12
 328 978 328 978 656 976 c 1,13,14
 408 578 408 578 216 202 c 0,15,16
 203 182 203 182 243 145 c 0,17,18
 386 24 386 24 530 -45 c 0,19,20
 554 -60 554 -60 571 -46 c 1,21,22
 990 460 990 460 1284 945 c 1,23,0
 1331 1033 1331 1033 1288 1389 c 0,1,2
EndSplineSet
Validated: 41
EndChar

StartChar: eight
Encoding: 56 56 27
Width: 1504
GlyphClass: 1
Flags: W
LayerCount: 2
Fore
SplineSet
279 1389 m 0,1,2
 159 1365 159 1365 126 1169 c 0,3,4
 43 720 43 720 206 691 c 1,5,6
 168 672 168 672 105 603 c 1,7,8
 -26 446 -26 446 71 130 c 1,9,10
 121 24 121 24 290 1 c 0,11,12
 731 -53 731 -53 1167 1 c 1,13,14
 1336 27 1336 27 1386 130 c 1,15,16
 1464 529 1464 529 1337 700 c 0,17,18
 1313 732 1313 732 1251 751 c 1,19,20
 1414 780 1414 780 1330 1189 c 1,21,22
 1298 1395 1298 1395 1178 1419 c 1,23,0
 713 1487 713 1487 279 1389 c 0,1,2
671 839 m 0,24,25
 593 836 593 836 555 887 c 1,26,27
 510 937 510 937 562 1033 c 0,28,29
 580 1074 580 1074 713 1079 c 1,30,31
 845 1074 845 1074 865 1033 c 0,32,33
 917 937 917 937 855 885 c 1,34,35
 796 844 796 844 671 839 c 0,24,25
781 592 m 0,36,37
 869 595 869 595 912 537 c 1,38,39
 963 481 963 481 935 372 c 1,40,41
 931 323 931 323 733 320 c 1,42,43
 553 325 553 325 531 372 c 1,44,45
 502 481 502 481 572 539 c 1,46,47
 639 586 639 586 781 592 c 0,36,37
EndSplineSet
Validated: 41
EndChar

StartChar: nine
Encoding: 57 57 28
Width: 1377
GlyphClass: 1
Flags: W
LayerCount: 2
Fore
SplineSet
581 1071 m 1,0,1
 691 1088 691 1088 834 1064 c 1,2,3
 865 982 865 982 857 888 c 1,4,5
 817 841 817 841 570 877 c 1,6,7
 507 891 507 891 489 911 c 1,8,9
 456 935 456 935 468 1027 c 1,10,11
 481 1061 481 1061 581 1071 c 1,0,1
1326 280 m 1,12,13
 1396 853 1396 853 1280 1365 c 0,14,15
 1267 1426 1267 1426 1239 1446 c 1,16,17
 1132 1497 1132 1497 797 1504 c 1,18,19
 324 1488 324 1488 193 1406 c 1,20,21
 92 1364 92 1364 72 1257 c 1,22,23
 20 848 20 848 95 731 c 0,24,25
 143 658 143 658 246 631 c 1,26,27
 501 583 501 583 770 597 c 0,28,29
 828 602 828 602 875 611 c 1,30,31
 889 547 889 547 875 457 c 1,32,33
 860 415 860 415 754 411 c 0,34,35
 636 407 636 407 199 509 c 1,36,37
 171 521 171 521 151 501 c 0,38,39
 81 424 81 424 42 146 c 0,40,41
 42 125 42 125 75 108 c 1,42,43
 736 -100 736 -100 1157 7 c 1,44,45
 1284 34 1284 34 1326 280 c 1,12,13
EndSplineSet
Validated: 41
EndChar

StartChar: colon
Encoding: 58 58 29
Width: 658
GlyphClass: 1
Flags: W
LayerCount: 2
Fore
SplineSet
577 17 m 0,1,2
 590 143 590 143 577 300 c 1,3,4
 568 351 568 351 544 360 c 1,5,6
 307 407 307 407 103 361 c 1,7,8
 58 344 58 344 52 310 c 0,9,10
 23 197 23 197 49 33 c 0,11,12
 59 -10 59 -10 92 -18 c 1,13,14
 254 -27 254 -27 514 -20 c 0,15,0
 570 -20 570 -20 577 17 c 0,1,2
577 654 m 0,17,18
 590 780 590 780 577 937 c 1,19,20
 568 988 568 988 544 997 c 1,21,22
 307 1044 307 1044 103 998 c 1,23,24
 58 981 58 981 52 947 c 0,25,26
 23 834 23 834 49 670 c 0,27,28
 59 627 59 627 92 619 c 1,29,30
 254 610 254 610 514 617 c 0,31,16
 570 617 570 617 577 654 c 0,17,18
577 17 m 0,33,34
 590 143 590 143 577 300 c 1,35,36
 568 351 568 351 544 360 c 1,37,38
 307 407 307 407 103 361 c 1,39,40
 58 344 58 344 52 310 c 0,41,42
 23 197 23 197 49 33 c 0,43,44
 59 -10 59 -10 92 -18 c 1,45,46
 254 -27 254 -27 514 -20 c 0,47,32
 570 -20 570 -20 577 17 c 0,33,34
EndSplineSet
Validated: 37
EndChar

StartChar: semicolon
Encoding: 59 59 30
AltUni2: 00037e.ffffffff.0
Width: 658
GlyphClass: 1
Flags: W
LayerCount: 2
Fore
SplineSet
577 300 m 1,1,2
 568 351 568 351 544 360 c 1,3,4
 307 407 307 407 103 361 c 1,5,6
 58 344 58 344 52 310 c 0,7,8
 23 197 23 197 49 33 c 0,9,10
 59 -10 59 -10 92 -18 c 1,11,12
 157 -22 157 -22 239 -23 c 1,13,14
 229 -75 229 -75 196 -172 c 0,15,16
 183 -206 183 -206 211 -214 c 1,17,18
 527 -195 527 -195 565 -41 c 1,19,20
 591 38 591 38 583 171 c 0,21,0
 583 233 583 233 577 300 c 1,1,2
577 654 m 0,23,24
 590 780 590 780 577 937 c 1,25,26
 568 988 568 988 544 997 c 1,27,28
 307 1044 307 1044 103 998 c 1,29,30
 58 981 58 981 52 947 c 0,31,32
 23 834 23 834 49 670 c 0,33,34
 59 627 59 627 92 619 c 1,35,36
 254 610 254 610 514 617 c 0,37,22
 570 617 570 617 577 654 c 0,23,24
EndSplineSet
Validated: 41
EndChar

StartChar: less
Encoding: 60 60 31
Width: 1274
GlyphClass: 1
Flags: W
LayerCount: 2
Fore
SplineSet
61 1016 m 0,1,2
 13 702 13 702 50 426 c 0,3,4
 53 403 53 403 79 390 c 0,5,6
 443 237 443 237 968 105 c 0,7,8
 989 100 989 100 1003 124 c 0,9,10
 1072 252 1072 252 1142 453 c 0,11,12
 1157 501 1157 501 1135 510 c 0,13,14
 654 695 654 695 556 713 c 1,15,16
 894 813 894 813 1117 916 c 0,17,18
 1139 926 1139 926 1124 973 c 0,19,20
 1053 1176 1053 1176 966 1298 c 0,21,22
 953 1322 953 1322 931 1318 c 0,23,24
 621 1248 621 1248 88 1044 c 0,25,0
 66 1036 66 1036 61 1016 c 0,1,2
EndSplineSet
Validated: 41
EndChar

StartChar: equal
Encoding: 61 61 32
Width: 1057
GlyphClass: 1
Flags: W
LayerCount: 2
Fore
SplineSet
949 1268 m 0,1,2
 648 1276 648 1276 51 1260 c 0,3,4
 35 1260 35 1260 31 1240 c 0,5,6
 11 1035 11 1035 29 842 c 0,7,8
 34 801 34 801 54 800 c 0,9,10
 593 797 593 797 947 803 c 0,11,12
 969 804 969 804 973 833 c 0,13,14
 992 979 992 979 976 1215 c 0,15,0
 973 1266 973 1266 949 1268 c 0,1,2
949 633 m 0,17,18
 648 641 648 641 51 625 c 0,19,20
 35 625 35 625 31 605 c 0,21,22
 11 400 11 400 29 207 c 0,23,24
 34 166 34 166 54 165 c 0,25,26
 593 162 593 162 947 168 c 0,27,28
 969 169 969 169 973 198 c 0,29,30
 992 344 992 344 976 580 c 0,31,16
 973 631 973 631 949 633 c 0,17,18
EndSplineSet
Validated: 41
EndChar

StartChar: greater
Encoding: 62 62 33
Width: 1274
GlyphClass: 1
Flags: W
LayerCount: 2
Fore
SplineSet
1121 407 m 0,1,2
 1169 721 1169 721 1132 997 c 0,3,4
 1129 1020 1129 1020 1103 1033 c 0,5,6
 739 1186 739 1186 214 1318 c 0,7,8
 193 1323 193 1323 179 1299 c 0,9,10
 110 1172 110 1172 40 970 c 0,11,12
 25 922 25 922 47 913 c 0,13,14
 528 728 528 728 626 710 c 1,15,16
 288 610 288 610 65 507 c 0,17,18
 43 498 43 498 58 450 c 0,19,20
 129 247 129 247 216 125 c 0,21,22
 229 101 229 101 251 105 c 0,23,24
 561 175 561 175 1094 379 c 0,25,0
 1116 387 1116 387 1121 407 c 0,1,2
EndSplineSet
Validated: 41
EndChar

StartChar: question
Encoding: 63 63 34
Width: 1492
GlyphClass: 1
Flags: W
LayerCount: 2
Fore
SplineSet
329 413 m 1,1,2
 767 389 767 389 799 410 c 1,3,4
 796 535 796 535 944 562 c 1,5,6
 1137 617 1137 617 1187 685 c 1,7,8
 1339 932 1339 932 1250 1209 c 1,9,10
 1151 1455 1151 1455 747 1482 c 1,11,12
 386 1511 386 1511 47 1290 c 1,13,14
 19 1280 19 1280 23 1265 c 0,15,16
 27 1168 27 1168 169 899 c 0,17,18
 181 880 181 880 219 888 c 1,19,20
 467 1053 467 1053 745 1054 c 1,21,22
 784 1048 784 1048 797 1016 c 1,23,24
 808 975 808 975 806 949 c 0,25,26
 805 916 805 916 773 894 c 0,27,28
 744 876 744 876 699 866 c 0,29,30
 505 824 505 824 408.5 760.5 c 128,-1,31
 312 697 312 697 297 605 c 1,32,0
 295 447 295 447 329 413 c 1,1,2
760 358 m 0,33,34
 500 365 500 365 338 356 c 1,35,36
 305 348 305 348 295 307 c 0,37,38
 269 148 269 148 298 39 c 0,39,40
 304 6 304 6 349 -10 c 1,41,42
 553 -55 553 -55 790 -9 c 1,43,44
 814 0 814 0 823 49 c 1,45,46
 836 200 836 200 823 322 c 0,47,48
 816 358 816 358 760 358 c 0,33,34
EndSplineSet
Validated: 41
EndChar

StartChar: at
Encoding: 64 64 35
Width: 2187
GlyphClass: 1
Flags: W
LayerCount: 2
Fore
SplineSet
1315 671 m 1,0,1
 1358 686 1358 686 1370 710 c 0,2,3
 1431 842 1431 842 1348 972 c 1,4,5
 1285 1086 1285 1086 737 1042 c 1,6,7
 610 1017 610 1017 633 724 c 1,8,9
 665 415 665 415 733 400 c 1,10,11
 1426 368 1426 368 1931 408 c 1,12,13
 1963 382 1963 382 1960 357 c 1,14,15
 1979 146 1979 146 1908 20 c 1,16,17
 1902 -1 1902 -1 1870 -10 c 1,18,19
 1149 -40 1149 -40 427 -20 c 1,20,21
 130 10 130 10 92 149 c 0,22,23
 29 381 29 381 20 986 c 1,24,-1
 21 985 l 1,25,26
 29 1333 29 1333 221 1388 c 1,27,28
 547 1496 547 1496 1364 1465 c 0,29,30
 1888 1448 1888 1448 1974 1221 c 1,31,32
 2078 883 2078 883 1967 654 c 1,33,34
 1830 485 1830 485 1558 474 c 0,35,36
 1180 464 1180 464 882 474 c 0,37,38
 801 479 801 479 756 558 c 0,39,40
 714 635 714 635 735 854 c 0,41,42
 747 950 747 950 906 967 c 1,43,44
 1145 982 1145 982 1244 932 c 1,45,46
 1318 889 1318 889 1317 706 c 0,47,48
 1317 688 1317 688 1315 671 c 1,0,1
1076 658 m 0,50,51
 1118 666 1118 666 1126 693 c 0,52,53
 1145 768 1145 768 1109 780 c 1,54,55
 954 807 954 807 936 771 c 0,56,57
 912 723 912 723 928 678 c 0,58,49
 940 645 940 645 1076 658 c 0,50,51
EndSplineSet
Validated: 33
EndChar

StartChar: A
Encoding: 65 65 36
Width: 1702
GlyphClass: 1
Flags: W
LayerCount: 2
Fore
SplineSet
1073 274 m 1,1,2
 1117 120 1117 120 1168 -53 c 0,3,4
 1176 -76 1176 -76 1230 -66 c 1,5,6
 1468 0 1468 0 1613 57 c 0,7,8
 1639 67 1639 67 1637 90 c 0,9,10
 1483 859 1483 859 1310 1410 c 0,11,12
 1300 1442 1300 1442 1250 1449 c 0,13,14
 865 1491 865 1491 427 1436 c 0,15,16
 393 1428 393 1428 386 1410 c 0,17,18
 213 859 213 859 48 81 c 0,19,20
 46 58 46 58 73 48 c 0,21,22
 214 -27 214 -27 441 -76 c 0,23,24
 495 -86 495 -86 503 -63 c 0,25,26
 556 97 556 97 606 271 c 1,27,0
 856 257 856 257 1073 274 c 1,1,2
927 889 m 1,29,30
 958 755 958 755 992 623 c 1,31,32
 861 622 861 622 702 620 c 1,33,34
 737 754 737 754 768 888 c 1,35,28
 850 888 850 888 927 889 c 1,29,30
EndSplineSet
Validated: 41
EndChar

StartChar: B
Encoding: 66 66 37
Width: 1725
GlyphClass: 1
Flags: W
LayerCount: 2
Fore
SplineSet
1126 994 m 1,0,1
 1129 950 1129 950 1125 919 c 0,2,3
 1122 879 1122 879 1088 846 c 0,4,5
 1068 822 1068 822 1040 817 c 0,6,7
 862 772 862 772 716 807 c 1,8,9
 717 900 717 900 714 1045 c 1,10,11
 877 1062 877 1062 1009 1049 c 0,12,13
 1112 1036 1112 1036 1126 994 c 1,0,1
608 -32 m 1,14,15
 1009 -76 1009 -76 1399 -21 c 1,16,17
 1547 22 1547 22 1597 132 c 1,18,19
 1692 419 1692 419 1530 653 c 0,20,21
 1507 680 1507 680 1473 699 c 1,22,23
 1617 730 1617 730 1543 1167 c 1,24,25
 1503 1354 1503 1354 1381 1401 c 1,26,27
 1127 1485 1127 1485 737 1480 c 0,28,29
 382 1476 382 1476 70 1364 c 1,30,31
 39 1346 39 1346 36 1322 c 0,32,33
 36 1180 36 1180 71 975 c 0,34,35
 77 955 77 955 99 956 c 0,36,37
 146 958 146 958 192 961 c 1,38,39
 186 542 186 542 208 63 c 0,40,41
 211 41 211 41 239 27 c 1,42,43
 364 0 364 0 608 -32 c 1,14,15
869 537 m 1,45,46
 1078 530 1078 530 1100 502 c 0,47,48
 1136 455 1136 455 1135 406 c 1,49,50
 1139 383 1139 383 1127 336 c 1,51,52
 1115 310 1115 310 1074 302 c 0,53,54
 930 276 930 276 713 287 c 1,55,56
 714 393 714 393 717 530 c 1,57,44
 766 536 766 536 869 537 c 1,45,46
EndSplineSet
Validated: 41
EndChar

StartChar: C
Encoding: 67 67 38
Width: 1479
GlyphClass: 1
Flags: W
LayerCount: 2
Fore
SplineSet
1401 151 m 0,1,2
 1405 126 1405 126 1381 115 c 0,3,4
 824 -75 824 -75 303 23 c 1,5,6
 158 59 158 59 92 161 c 1,7,8
 -15 356 -15 356 53 1074 c 1,9,10
 95 1355 95 1355 259 1390 c 1,11,12
 850 1481 850 1481 1316 1395 c 1,13,14
 1352 1380 1352 1380 1347 1358 c 0,15,16
 1318 1174 1318 1174 1251 1016 c 0,17,18
 1235 987 1235 987 1186 999 c 1,19,20
 874 1029 874 1029 598 948 c 0,21,22
 545 934 545 934 530 891 c 1,23,24
 515 813 515 813 522 678 c 0,25,26
 536 502 536 502 583 423 c 1,27,28
 608 393 608 393 644 387 c 0,29,30
 880 358 880 358 1269 471 c 0,31,32
 1295 481 1295 481 1304 463 c 0,33,0
 1361 362 1361 362 1401 151 c 0,1,2
EndSplineSet
Validated: 33
EndChar

StartChar: D
Encoding: 68 68 39
Width: 1816
GlyphClass: 1
Flags: W
LayerCount: 2
Fore
SplineSet
190 67 m 0,1,2
 193 47 193 47 222 43 c 0,3,4
 920 -69 920 -69 1442 35 c 1,5,6
 1611 82 1611 82 1644 330 c 1,7,8
 1711 1058 1711 1058 1606 1258 c 1,9,10
 1541 1363 1541 1363 1399 1404 c 1,11,12
 887 1517 887 1517 76 1387 c 1,13,14
 52 1376 52 1376 56 1350 c 1,15,16
 48 1135 48 1135 75 981 c 1,17,18
 83 963 83 963 109 973 c 1,19,20
 137 976 137 976 173 979 c 1,21,0
 166 573 166 573 190 67 c 0,1,2
678 994 m 1,23,24
 945 1017 945 1017 1069 989 c 0,25,26
 1104 982 1104 982 1129 951 c 1,27,28
 1175 869 1175 869 1184 743 c 0,29,30
 1191 596 1191 596 1176 507 c 1,31,32
 1161 464 1161 464 1109 450 c 0,33,34
 905 404 905 404 681 436 c 1,35,22
 685 710 685 710 678 994 c 1,23,24
EndSplineSet
Validated: 41
EndChar

StartChar: E
Encoding: 69 69 40
Width: 1487
GlyphClass: 1
Flags: W
LayerCount: 2
Fore
SplineSet
687 549 m 1,1,2
 923 560 923 560 1110 566 c 0,3,4
 1132 567 1132 567 1136 588 c 0,5,6
 1156 697 1156 697 1140 872 c 0,7,8
 1136 910 1136 910 1112 911 c 0,9,10
 944 912 944 912 684 905 c 1,11,12
 683 953 683 953 682 1001 c 1,13,14
 981 1011 981 1011 1278 1012 c 0,15,16
 1310 1015 1310 1015 1314 1064 c 0,17,18
 1330 1278 1330 1278 1300 1415 c 0,19,20
 1293 1443 1293 1443 1263 1442 c 0,21,22
 554 1460 554 1460 41 1414 c 0,23,24
 14 1412 14 1412 8 1373 c 1,25,26
 11 1184 11 1184 49 988 c 0,27,28
 55 970 55 970 77 971 c 0,29,30
 123 974 123 974 168 977 c 1,31,32
 162 552 162 552 186 38 c 0,33,34
 189 16 189 16 218 12 c 0,35,36
 329 -2 329 -2 488 3 c 1,37,38
 1017 3 1017 3 1369 35 c 0,39,40
 1394 36 1394 36 1398 64 c 0,41,42
 1420 202 1420 202 1402 425 c 0,43,44
 1398 474 1398 474 1371 476 c 0,45,46
 1124 460 1124 460 686 447 c 1,47,0
 687 498 687 498 687 549 c 1,1,2
EndSplineSet
Validated: 41
EndChar

StartChar: F
Encoding: 70 70 41
Width: 1396
GlyphClass: 1
Flags: W
LayerCount: 2
Fore
SplineSet
187 38 m 0,1,2
 190 16 190 16 218 12 c 0,3,4
 372 -7 372 -7 621 9 c 0,5,6
 675 12 675 12 677 36 c 0,7,8
 685 270 685 270 687 507 c 1,9,10
 925 529 925 529 1114 540 c 0,11,12
 1136 541 1136 541 1140 562 c 0,13,14
 1159 661 1159 661 1143 836 c 0,15,16
 1140 874 1140 874 1116 875 c 0,17,18
 947 876 947 876 685 869 c 1,19,20
 685 923 685 923 683 978 c 1,21,22
 981 984 981 984 1277 981 c 0,23,24
 1310 984 1310 984 1314 1035 c 0,25,26
 1333 1258 1333 1258 1305 1401 c 0,27,28
 1299 1430 1299 1430 1269 1430 c 0,29,30
 561 1459 561 1459 47 1419 c 0,31,32
 19 1417 19 1417 13 1377 c 1,33,34
 13 1180 13 1180 48 975 c 0,35,36
 54 955 54 955 76 956 c 0,37,38
 123 958 123 958 169 961 c 1,39,0
 163 542 163 542 187 38 c 0,1,2
EndSplineSet
Validated: 41
EndChar

StartChar: G
Encoding: 71 71 42
Width: 1457
GlyphClass: 1
Flags: W
LayerCount: 2
Fore
SplineSet
893 71 m 1,0,1
 610 -35 610 -35 303 23 c 1,2,3
 158 59 158 59 92 161 c 1,4,5
 -15 356 -15 356 53 1074 c 1,6,7
 85 1327 85 1327 259 1390 c 1,8,9
 816 1535 816 1535 1345 1344 c 0,10,11
 1381 1329 1381 1329 1376 1307 c 0,12,13
 1347 1123 1347 1123 1280 965 c 0,14,15
 1264 936 1264 936 1215 948 c 0,16,17
 874 1029 874 1029 598 948 c 0,18,19
 545 934 545 934 530 891 c 1,20,21
 515 813 515 813 522 678 c 0,22,23
 527 569 527 569 574 490 c 1,24,25
 599 460 599 460 635 454 c 0,26,27
 740 444 740 444 879 515 c 1,28,29
 876 695 876 695 880 819 c 0,30,31
 882 841 882 841 932 844 c 0,32,33
 1161 859 1161 859 1303 841 c 0,34,35
 1331 837 1331 837 1332 818 c 0,36,37
 1351 481 1351 481 1335 14 c 0,38,39
 1334 -4 1334 -4 1294 -9 c 0,40,41
 1106 -25 1106 -25 914 -4 c 0,42,43
 895 -1 895 -1 895 14 c 0,44,45
 894 43 894 43 893 71 c 1,0,1
EndSplineSet
Validated: 33
EndChar

StartChar: H
Encoding: 72 72 43
Width: 1506
GlyphClass: 1
Flags: W
LayerCount: 2
Fore
SplineSet
599 764 m 1,1,2
 596 1084 596 1084 586 1414 c 0,3,4
 586 1431 586 1431 564 1435 c 0,5,6
 337 1455 337 1455 123 1437 c 0,7,8
 78 1432 78 1432 77 1411 c 0,9,10
 41 825 41 825 80 26 c 0,11,12
 83 3 83 3 113 -1 c 0,13,14
 275 -20 275 -20 535 -4 c 0,15,16
 592 0 592 0 595 24 c 0,17,18
 598 175 598 175 599 328 c 1,19,20
 747 337 747 337 887 348 c 1,21,22
 890 188 890 188 893 30 c 0,23,24
 897 -6 897 -6 952 -11 c 0,25,26
 1195 -32 1195 -32 1352 -1 c 0,27,28
 1383 6 1383 6 1383 39 c 0,29,30
 1428 563 1428 563 1371 1402 c 0,31,32
 1369 1432 1369 1432 1325 1439 c 1,33,34
 1110 1439 1110 1439 887 1400 c 0,35,36
 866 1394 866 1394 866 1369 c 0,37,38
 872 1064 872 1064 878 764 c 1,39,0
 752 766 752 766 599 764 c 1,1,2
EndSplineSet
Validated: 41
EndChar

StartChar: I
Encoding: 73 73 44
Width: 671
GlyphClass: 1
Flags: W
LayerCount: 2
Fore
SplineSet
573 1088 m 0,1,2
 587 1216 587 1216 566 1391 c 0,3,4
 565 1424 565 1424 541 1433 c 1,5,6
 304 1480 304 1480 100 1434 c 1,7,8
 55 1417 55 1417 49 1383 c 0,9,10
 20 1270 20 1270 49 1099 c 0,11,12
 59 1056 59 1056 89 1055 c 0,13,14
 251 1046 251 1046 511 1053 c 0,15,0
 568 1055 568 1055 573 1088 c 0,1,2
521 29 m 0,17,18
 539 339 539 339 543 954 c 0,19,20
 543 970 543 970 523 975 c 0,21,22
 315 995 315 995 106 977 c 0,23,24
 64 971 64 971 63 951 c 0,25,26
 64 444 64 444 96 26 c 0,27,28
 96 3 96 3 125 -1 c 0,29,30
 224 -16 224 -16 465 1 c 0,31,16
 518 5 518 5 521 29 c 0,17,18
EndSplineSet
Validated: 41
EndChar

StartChar: J
Encoding: 74 74 45
Width: 1554
GlyphClass: 1
Flags: W
LayerCount: 2
Fore
SplineSet
1371 1419 m 1,1,2
 1396 1423 1396 1423 1407 1399 c 1,3,4
 1517 790 1517 790 1419 269 c 1,5,6
 1383 124 1383 124 1281 58 c 1,7,8
 1086 -49 1086 -49 368 19 c 1,9,10
 87 61 87 61 52 225 c 1,11,12
 -12 628 -12 628 82 920 c 0,13,14
 97 956 97 956 119 951 c 0,15,16
 303 922 303 922 461 855 c 0,17,18
 490 839 490 839 478 790 c 0,19,20
 440 652 440 652 479 539 c 1,21,22
 518 468 518 468 728 485 c 0,23,24
 832 494 832 494 911 541 c 1,25,26
 941 566 941 566 947 602 c 0,27,28
 976 838 976 838 901 1362 c 1,29,30
 891 1389 891 1389 909 1397 c 0,31,0
 1080 1465 1080 1465 1371 1419 c 1,1,2
EndSplineSet
Validated: 33
EndChar

StartChar: K
Encoding: 75 75 46
Width: 1473
GlyphClass: 1
Flags: W
LayerCount: 2
Fore
SplineSet
636 474 m 1,1,2
 869 148 869 148 1007 -39 c 0,3,4
 1020 -55 1020 -55 1045 -43 c 0,5,6
 1175 17 1175 17 1359 148 c 0,7,8
 1399 177 1399 177 1389 195 c 0,9,10
 1271 375 1271 375 1008 776 c 1,11,12
 1205 941 1205 941 1367 1091 c 0,13,14
 1386 1107 1386 1107 1372 1131 c 0,15,16
 1304 1253 1304 1253 1152 1418 c 0,17,18
 1119 1454 1119 1454 1097 1439 c 0,19,20
 888 1254 888 1254 562 982 c 1,21,22
 557 1195 557 1195 547 1409 c 0,23,24
 547 1425 547 1425 526 1429 c 0,25,26
 310 1449 310 1449 106 1431 c 0,27,28
 63 1426 63 1426 62 1406 c 0,29,30
 28 822 28 822 65 28 c 0,31,32
 68 6 68 6 97 2 c 0,33,34
 251 -18 251 -18 499 -1 c 0,35,36
 553 2 553 2 556 26 c 0,37,38
 563 222 563 222 565 419 c 1,39,0
 601 447 601 447 636 474 c 1,1,2
EndSplineSet
Validated: 41
EndChar

StartChar: L
Encoding: 76 76 47
Width: 1335
GlyphClass: 1
Flags: W
LayerCount: 2
Fore
SplineSet
1205 14 m 1,1,2
 1232 20 1232 20 1237 54 c 0,3,4
 1257 182 1257 182 1240 405 c 0,5,6
 1236 454 1236 454 1211 456 c 0,7,8
 945 454 945 454 533 443 c 1,9,10
 538 916 538 916 515 1398 c 0,11,12
 515 1414 515 1414 494 1418 c 0,13,14
 278 1438 278 1438 74 1420 c 0,15,16
 31 1415 31 1415 30 1395 c 0,17,18
 -4 819 -4 819 33 45 c 0,19,20
 38 15 38 15 65 9 c 1,21,0
 543 -16 543 -16 1205 14 c 1,1,2
EndSplineSet
Validated: 41
EndChar

StartChar: M
Encoding: 77 77 48
Width: 1903
GlyphClass: 1
Flags: W
LayerCount: 2
Fore
SplineSet
898 352 m 0,1,2
 909 337 909 337 925 337 c 256,3,4
 941 337 941 337 952 352 c 0,5,6
 1099 518 1099 518 1211 646 c 1,7,8
 1252 311 1252 311 1302 9 c 0,9,10
 1307 -15 1307 -15 1364 -14 c 0,11,12
 1626 -10 1626 -10 1785 22 c 0,13,14
 1814 28 1814 28 1814 51 c 0,15,16
 1745 846 1745 846 1643 1352 c 0,17,18
 1639 1372 1639 1372 1585 1392 c 1,19,20
 1365 1449 1365 1449 1152 1445 c 0,21,22
 1133 1442 1133 1442 1124 1427 c 0,23,24
 1033 1290 1033 1290 925 1122 c 1,25,26
 816 1290 816 1290 725 1427 c 0,27,28
 715 1442 715 1442 693 1445 c 0,29,30
 479 1449 479 1449 259 1392 c 1,31,32
 205 1372 205 1372 201 1352 c 0,33,34
 99 846 99 846 30 51 c 0,35,36
 30 28 30 28 60 22 c 0,37,38
 218 -10 218 -10 480 -14 c 0,39,40
 537 -15 537 -15 543 9 c 0,41,42
 593 313 593 313 634 652 c 1,43,0
 748 521 748 521 898 352 c 0,1,2
EndSplineSet
Validated: 41
EndChar

StartChar: N
Encoding: 78 78 49
Width: 1558
GlyphClass: 1
Flags: W
LayerCount: 2
Fore
SplineSet
938 4 m 0,1,2
 965 -29 965 -29 981 -31 c 0,3,4
 1241 -35 1241 -35 1405 60 c 0,5,6
 1452 87 1452 87 1457 119 c 1,7,8
 1451 791 1451 791 1417 1374 c 0,9,10
 1417 1406 1417 1406 1385 1415 c 0,11,12
 1280 1450 1280 1450 1025 1461 c 0,13,14
 969 1463 969 1463 966 1429 c 0,15,16
 957 1224 957 1224 950 890 c 1,17,18
 733 1215 733 1215 566 1443 c 0,19,20
 555 1459 555 1459 545 1460 c 0,21,22
 251 1466 251 1466 110 1371 c 0,23,24
 58 1339 58 1339 58 1313 c 0,25,26
 64 641 64 641 98 58 c 0,27,28
 99 26 99 26 130 16 c 0,29,30
 235 -18 235 -18 490 -29 c 0,31,32
 546 -31 546 -31 549 3 c 0,33,34
 558 202 558 202 565 523 c 1,35,0
 775 204 775 204 938 4 c 0,1,2
EndSplineSet
Validated: 41
EndChar

StartChar: O
Encoding: 79 79 50
Width: 1903
GlyphClass: 1
Flags: W
LayerCount: 2
Fore
SplineSet
1517 1393 m 1,0,1
 1662 1357 1662 1357 1731 1204 c 0,2,3
 1816 1006 1816 1006 1770 349 c 1,4,5
 1729 68 1729 68 1564 33 c 1,6,7
 814 -58 814 -58 284 49 c 1,8,9
 204 70 204 70 153 142 c 1,10,11
 28 341 28 341 30 765 c 1,12,13
 40 1095 40 1095 121 1255 c 1,14,15
 157 1343 157 1343 284 1373 c 0,16,17
 905 1508 905 1508 1517 1393 c 1,0,1
1178 414 m 0,18,19
 1232 424 1232 424 1250 464 c 0,20,21
 1281 533 1281 533 1285 673 c 0,22,23
 1286 852 1286 852 1236 937 c 0,24,25
 1214 968 1214 968 1178 977 c 0,26,27
 946 1022 946 1022 663 980 c 0,28,29
 558 968 558 968 539 849 c 1,30,31
 520 570 520 570 557 486 c 0,32,33
 587 422 587 422 650 406 c 0,34,35
 898 357 898 357 1178 414 c 0,18,19
EndSplineSet
Validated: 33
EndChar

StartChar: P
Encoding: 80 80 51
Width: 1714
GlyphClass: 1
Flags: W
LayerCount: 2
Fore
SplineSet
219 53 m 0,1,2
 222 31 222 31 250 27 c 0,3,4
 406 -7 406 -7 660 -14 c 1,5,6
 714 -11 714 -11 716 13 c 0,7,8
 716 209 716 209 717 384 c 1,9,10
 1070 351 1070 351 1404 414 c 1,11,12
 1517 443 1517 443 1569 523 c 1,13,14
 1651 676 1651 676 1594 1157 c 1,15,16
 1569 1330 1569 1330 1458 1377 c 1,17,18
 1315 1466 1315 1466 796 1484 c 1,19,20
 381 1476 381 1476 70 1364 c 1,21,22
 39 1342 39 1342 36 1322 c 0,23,24
 37 1180 37 1180 74 975 c 0,25,26
 80 955 80 955 102 956 c 0,27,28
 149 958 149 958 195 961 c 1,29,0
 193 542 193 542 219 53 c 0,1,2
1162 938 m 1,31,32
 1175 877 1175 877 1171 846 c 1,33,34
 1173 783 1173 783 1137 721 c 1,35,36
 1117 697 1117 697 1089 692 c 0,37,38
 861 657 861 657 715 692 c 1,39,40
 714 837 714 837 709 982 c 1,41,42
 922 989 922 989 1050 984 c 0,43,30
 1148 980 1148 980 1162 938 c 1,31,32
EndSplineSet
Validated: 41
EndChar

StartChar: Q
Encoding: 81 81 52
Width: 1903
GlyphClass: 1
Flags: W
LayerCount: 2
Fore
SplineSet
1167 406 m 1,0,1
 1229 422 1229 422 1260 486 c 0,2,3
 1297 570 1297 570 1277 849 c 1,4,5
 1259 968 1259 968 1154 980 c 0,6,7
 850 1022 850 1022 638 977 c 0,8,9
 603 968 603 968 580 937 c 1,10,11
 530 852 530 852 531 673 c 0,12,13
 535 533 535 533 567 464 c 0,14,15
 584 424 584 424 638 414 c 0,16,17
 898 357 898 357 1167 406 c 1,0,1
1337 19 m 1,18,19
 825 -44 825 -44 273 28 c 1,20,21
 77 83 77 83 46 349 c 1,22,23
 0 1006 0 1006 86 1204 c 0,24,25
 147 1344 147 1344 299 1393 c 1,26,27
 892 1508 892 1508 1533 1373 c 0,28,29
 1655 1351 1655 1351 1696 1255 c 1,30,31
 1777 1095 1777 1095 1787 765 c 1,32,33
 1788 469 1788 469 1727 282 c 1,34,35
 1802 200 1802 200 1860 129 c 0,36,37
 1874 112 1874 112 1841 78 c 0,38,39
 1688 -78 1688 -78 1573 -156 c 0,40,41
 1550 -172 1550 -172 1535 -158 c 0,42,43
 1442 -81 1442 -81 1337 19 c 1,18,19
EndSplineSet
Validated: 33
EndChar

StartChar: R
Encoding: 82 82 53
Width: 1699
GlyphClass: 1
Flags: W
LayerCount: 2
Fore
SplineSet
1159 938 m 1,0,1
 1171 877 1171 877 1167 846 c 1,2,3
 1168 783 1168 783 1132 721 c 1,4,5
 1112 697 1112 697 1084 692 c 0,6,7
 856 657 856 657 710 692 c 1,8,9
 709 837 709 837 706 982 c 1,10,11
 919 989 919 989 1047 984 c 0,12,13
 1145 980 1145 980 1159 938 c 1,0,1
1244 -127 m 0,15,16
 1259 -141 1259 -141 1282 -125 c 0,17,18
 1396 -47 1396 -47 1550 109 c 0,19,20
 1583 143 1583 143 1569 160 c 0,21,22
 1487 241 1487 241 1332 403 c 1,23,24
 1364 408 1364 408 1396 414 c 0,25,26
 1510 443 1510 443 1562 523 c 1,27,28
 1646 676 1646 676 1593 1157 c 1,29,30
 1556 1337 1556 1337 1427 1388 c 1,31,32
 1088 1497 1088 1497 784 1482 c 0,33,34
 327 1463 327 1463 70 1364 c 1,35,36
 39 1342 39 1342 36 1322 c 0,37,38
 36 1180 36 1180 71 975 c 0,39,40
 77 955 77 955 99 956 c 0,41,42
 146 958 146 958 192 961 c 1,43,44
 186 542 186 542 208 53 c 0,45,46
 211 31 211 31 239 27 c 0,47,48
 395 -7 395 -7 639 -14 c 1,49,50
 693 -11 693 -11 695 13 c 0,51,52
 706 207 706 207 709 381 c 1,53,14
 1063 34 1063 34 1244 -127 c 0,15,16
EndSplineSet
Validated: 41
EndChar

StartChar: S
Encoding: 83 83 54
Width: 1434
GlyphClass: 1
Flags: W
LayerCount: 2
Fore
SplineSet
523 959 m 0,1,2
 528 991 528 991 576 998 c 0,3,4
 737 1012 737 1012 1218 973 c 1,5,6
 1257 965 1257 965 1269 984 c 1,7,8
 1315 1255 1315 1255 1319 1354 c 0,9,10
 1323 1369 1323 1369 1294 1379 c 1,11,12
 717 1496 717 1496 253 1435 c 1,13,14
 108 1403 108 1403 59 1290 c 1,15,16
 -42 927 -42 927 120 664 c 1,17,18
 172 595 172 595 286 570 c 0,19,20
 492 521 492 521 818 532 c 1,21,22
 890 520 890 520 853 474 c 0,23,24
 829 445 829 445 787 436 c 1,25,26
 626 421 626 421 145 461 c 1,27,28
 107 469 107 469 94 449 c 1,29,30
 49 179 49 179 45 79 c 0,31,32
 41 65 41 65 69 54 c 1,33,34
 646 -63 646 -63 1110 -1 c 1,35,36
 1255 30 1255 30 1304 144 c 1,37,38
 1406 507 1406 507 1244 770 c 1,39,40
 1192 839 1192 839 1067 872 c 1,41,42
 835 925 835 925 612 912 c 1,43,0
 508 900 508 900 523 959 c 0,1,2
EndSplineSet
Validated: 41
EndChar

StartChar: T
Encoding: 84 84 55
Width: 1516
GlyphClass: 1
Flags: W
LayerCount: 2
Fore
SplineSet
483 38 m 0,1,2
 486 16 486 16 514 12 c 0,3,4
 686 -22 686 -22 872 -4 c 0,5,6
 926 -1 926 -1 928 23 c 0,7,8
 960 470 960 470 958 922 c 1,9,10
 1158 925 1158 925 1350 928 c 0,11,12
 1379 928 1379 928 1389 987 c 0,13,14
 1420 1229 1420 1229 1401 1375 c 0,15,16
 1395 1406 1395 1406 1358 1411 c 0,17,18
 646 1493 646 1493 63 1405 c 0,19,20
 35 1403 35 1403 28 1358 c 1,21,22
 28 1145 28 1145 65 922 c 0,23,24
 71 900 71 900 94 901 c 0,25,26
 273 906 273 906 447 910 c 1,27,0
 448 512 448 512 483 38 c 0,1,2
EndSplineSet
Validated: 41
EndChar

StartChar: U
Encoding: 85 85 56
Width: 1576
GlyphClass: 1
Flags: W
LayerCount: 2
Fore
SplineSet
1380 1467 m 0,1,2
 1405 1471 1405 1471 1416 1447 c 1,3,4
 1536 782 1536 782 1438 261 c 1,5,6
 1402 116 1402 116 1300 50 c 1,7,8
 1105 -57 1105 -57 387 11 c 1,9,10
 106 53 106 53 71 217 c 1,11,12
 -20 808 -20 808 100 1423 c 0,13,14
 107 1454 107 1454 137 1454 c 0,15,16
 341 1455 341 1455 499 1388 c 0,17,18
 528 1372 528 1372 516 1323 c 1,19,20
 458 832 458 832 513 556 c 0,21,22
 527 503 527 503 570 488 c 1,23,24
 648 473 648 473 783 480 c 0,25,26
 931 492 931 492 1010 539 c 1,27,28
 1040 564 1040 564 1046 600 c 0,29,30
 1075 836 1075 836 996 1374 c 1,31,32
 986 1401 986 1401 1004 1409 c 0,33,0
 1123 1448 1123 1448 1380 1467 c 0,1,2
EndSplineSet
Validated: 33
EndChar

StartChar: V
Encoding: 86 86 57
Width: 1725
GlyphClass: 1
Flags: W
LayerCount: 2
Fore
SplineSet
503 -12 m 0,1,2
 846 -60 846 -60 1147 -23 c 0,3,4
 1172 -20 1172 -20 1187 6 c 0,5,6
 1418 547 1418 547 1642 1300 c 0,7,8
 1647 1321 1647 1321 1621 1335 c 0,9,10
 1482 1404 1482 1404 1262 1474 c 0,11,12
 1209 1489 1209 1489 1200 1467 c 0,13,14
 997 986 997 986 834 483 c 1,15,16
 666 993 666 993 451 1500 c 0,17,18
 441 1522 441 1522 389 1507 c 0,19,20
 167 1436 167 1436 34 1349 c 0,21,22
 8 1336 8 1336 12 1314 c 0,23,24
 249 548 249 548 472 15 c 0,25,0
 481 -7 481 -7 503 -12 c 0,1,2
EndSplineSet
Validated: 41
EndChar

StartChar: W
Encoding: 87 87 58
Width: 1903
GlyphClass: 1
Flags: W
LayerCount: 2
Fore
SplineSet
634 779 m 1,0,1
 593 1118 593 1118 543 1422 c 0,2,3
 537 1446 537 1446 480 1445 c 0,4,5
 218 1441 218 1441 60 1409 c 0,6,7
 30 1403 30 1403 30 1380 c 0,8,9
 99 585 99 585 201 79 c 0,10,11
 205 59 205 59 259 39 c 1,12,13
 479 -18 479 -18 693 -14 c 0,14,15
 715 -11 715 -11 725 4 c 0,16,17
 816 142 816 142 925 309 c 1,18,19
 1033 142 1033 142 1124 4 c 0,20,21
 1133 -11 1133 -11 1152 -14 c 0,22,23
 1365 -18 1365 -18 1585 39 c 1,24,25
 1639 59 1639 59 1643 79 c 0,26,27
 1745 585 1745 585 1814 1380 c 0,28,29
 1814 1403 1814 1403 1785 1409 c 0,30,31
 1626 1441 1626 1441 1364 1445 c 0,32,33
 1307 1446 1307 1446 1302 1422 c 0,34,35
 1252 1121 1252 1121 1211 785 c 1,36,37
 1099 913 1099 913 952 1079 c 0,38,39
 941 1095 941 1095 925 1094 c 0,40,41
 909 1095 909 1095 898 1079 c 0,42,43
 748 910 748 910 634 779 c 1,0,1
EndSplineSet
Validated: 41
EndChar

StartChar: X
Encoding: 88 88 59
Width: 1640
GlyphClass: 1
Flags: W
LayerCount: 2
Fore
SplineSet
1531 1161 m 0,1,2
 1544 1176 1544 1176 1517 1210 c 0,3,4
 1385 1366 1385 1366 1216 1503 c 0,5,6
 1199 1515 1199 1515 1187 1504 c 0,7,8
 994 1325 994 1325 781 1107 c 1,9,10
 567 1324 567 1324 373 1502 c 0,11,12
 362 1513 362 1513 344 1501 c 0,13,14
 177 1363 177 1363 45 1207 c 0,15,16
 18 1173 18 1173 31 1158 c 0,17,18
 193 974 193 974 425 729 c 1,19,20
 236 521 236 521 34 287 c 0,21,22
 19 268 19 268 55 227 c 0,23,24
 220 42 220 42 344 -52 c 0,25,26
 367 -70 367 -70 385 -56 c 0,27,28
 599 163 599 163 783 354 c 1,29,30
 968 164 968 164 1184 -54 c 0,31,32
 1201 -68 1201 -68 1225 -50 c 0,33,34
 1348 45 1348 45 1512 231 c 0,35,36
 1548 272 1548 272 1533 290 c 0,37,38
 1329 524 1329 524 1139 730 c 1,39,0
 1370 977 1370 977 1531 1161 c 0,1,2
EndSplineSet
Validated: 9
EndChar

StartChar: Y
Encoding: 89 89 60
Width: 1517
GlyphClass: 1
Flags: W
LayerCount: 2
Fore
SplineSet
1435 1126 m 0,1,2
 1448 1141 1448 1141 1422 1172 c 0,3,4
 1313 1322 1313 1322 1117 1469 c 0,5,6
 1100 1480 1100 1480 1090 1469 c 0,7,8
 864 1210 864 1210 727 1057 c 1,9,10
 590 1210 590 1210 364 1469 c 0,11,12
 353 1480 353 1480 337 1469 c 0,13,14
 141 1322 141 1322 31 1172 c 0,15,16
 6 1141 6 1141 19 1126 c 0,17,18
 294 818 294 818 484 647 c 1,19,20
 483 363 483 363 497 35 c 0,21,22
 500 13 500 13 529 9 c 0,23,24
 683 -10 683 -10 931 6 c 0,25,26
 986 9 986 9 988 33 c 0,27,28
 1001 275 1001 275 991 666 c 1,29,0
 1175 835 1175 835 1435 1126 c 0,1,2
EndSplineSet
Validated: 41
EndChar

StartChar: Z
Encoding: 90 90 61
Width: 1558
GlyphClass: 1
Flags: W
LayerCount: 2
Fore
SplineSet
1488 881 m 0,1,2
 1522 908 1522 908 1524 924 c 0,3,4
 1537 1194 1537 1194 1447 1368 c 0,5,6
 1422 1417 1422 1417 1390 1424 c 1,7,8
 718 1440 718 1440 114 1424 c 0,9,10
 82 1425 82 1425 72 1392 c 0,11,12
 34 1284 34 1284 30 986 c 0,13,14
 26 928 26 928 60 924 c 0,15,16
 264 907 264 907 603 923 c 1,17,18
 271 709 271 709 38 543 c 0,19,20
 21 532 21 532 20 495 c 0,21,22
 25 163 25 163 95 67 c 1,23,24
 125 12 125 12 151 11 c 0,25,26
 823 -5 823 -5 1427 11 c 0,27,28
 1459 11 1459 11 1470 43 c 0,29,30
 1507 151 1507 151 1511 444 c 0,31,32
 1515 502 1515 502 1481 506 c 0,33,34
 1283 522 1283 522 951 509 c 1,35,0
 1282 718 1282 718 1488 881 c 0,1,2
EndSplineSet
Validated: 41
EndChar

StartChar: bracketleft
Encoding: 91 91 62
Width: 979
GlyphClass: 1
Flags: W
LayerCount: 2
Fore
SplineSet
518 218 m 1,1,2
 639 178 639 178 812 215 c 1,3,4
 838 225 838 225 847 207 c 0,5,6
 879 126 879 126 866 -135 c 1,7,8
 870 -160 870 -160 846 -171 c 1,9,10
 614 -235 614 -235 295 -214 c 1,11,12
 91 -196 91 -196 84 -155 c 0,13,14
 11 511 11 511 53 1254 c 0,15,16
 72 1572 72 1572 138 1601 c 1,17,18
 609 1661 609 1661 832 1604 c 1,19,20
 868 1589 868 1589 863 1567 c 1,21,22
 871 1350 871 1350 846 1212 c 1,23,24
 830 1183 830 1183 798 1193 c 1,25,26
 633 1209 633 1209 520 1181 c 1,27,28
 495 1166 495 1166 497 702 c 128,-1,0
 499 238 499 238 518 218 c 1,1,2
EndSplineSet
Validated: 33
EndChar

StartChar: backslash
Encoding: 92 92 63
Width: 1246
GlyphClass: 1
Flags: W
LayerCount: 2
Fore
SplineSet
473 1443 m 1,0,1
 327 1471 327 1471 83 1450 c 1,2,3
 19 1433 19 1433 37 1387 c 0,4,5
 88 1272 88 1272 156 1131 c 1,6,7
 243 937 243 937 334 684 c 0,8,9
 435 410 435 410 588 41 c 1,10,11
 608 8 608 8 650 0 c 1,12,13
 913 -18 913 -18 1135 4 c 1,14,15
 1171 15 1171 15 1149 44 c 1,16,17
 887 540 887 540 692 972 c 1,18,19
 581 1235 581 1235 518 1408 c 0,20,21
 509 1430 509 1430 473 1443 c 1,0,1
EndSplineSet
Validated: 41
EndChar

StartChar: bracketright
Encoding: 93 93 64
Width: 979
GlyphClass: 1
Flags: W
LayerCount: 2
Fore
SplineSet
389 1195 m 1,1,2
 268 1235 268 1235 95 1198 c 1,3,4
 69 1188 69 1188 60 1206 c 0,5,6
 28 1287 28 1287 41 1548 c 1,7,8
 37 1573 37 1573 61 1584 c 1,9,10
 293 1648 293 1648 612 1627 c 1,11,12
 816 1609 816 1609 823 1568 c 0,13,14
 896 902 896 902 854 159 c 0,15,16
 835 -159 835 -159 769 -188 c 1,17,18
 298 -248 298 -248 75 -191 c 1,19,20
 39 -176 39 -176 44 -154 c 1,21,22
 36 63 36 63 61 201 c 1,23,24
 77 230 77 230 109 220 c 1,25,26
 274 204 274 204 387 232 c 1,27,28
 412 247 412 247 410 711 c 128,-1,0
 408 1175 408 1175 389 1195 c 1,1,2
EndSplineSet
Validated: 33
EndChar

StartChar: asciicircum
Encoding: 94 94 65
Width: 1014
GlyphClass: 1
Flags: W
LayerCount: 2
Fore
SplineSet
207 2063 m 0,1,2
 13 1984 13 1984 -154 1810 c 0,3,4
 -169 1789 -169 1789 -147 1742 c 1,5,6
 -68 1606 -68 1606 15 1510 c 0,7,8
 42 1483 42 1483 88 1515 c 0,9,10
 167 1567 167 1567 234 1613 c 1,11,12
 301 1567 301 1567 380 1515 c 0,13,14
 426 1483 426 1483 453 1510 c 0,15,16
 535 1606 535 1606 614 1742 c 1,17,18
 636 1789 636 1789 622 1810 c 1,19,20
 454 1984 454 1984 261 2063 c 0,21,0
 232 2071 232 2071 207 2063 c 0,1,2
EndSplineSet
Validated: 41
EndChar

StartChar: underscore
Encoding: 95 95 66
Width: 1477
GlyphClass: 1
Flags: W
LayerCount: 2
Fore
SplineSet
1357 403 m 0,1,2
 927 411 927 411 74 395 c 0,3,4
 51 395 51 395 46 375 c 0,5,6
 17 170 17 170 43 -23 c 0,7,8
 50 -64 50 -64 78 -65 c 0,9,10
 849 -68 849 -68 1354 -62 c 0,11,12
 1386 -61 1386 -61 1392 -32 c 0,13,14
 1419 114 1419 114 1396 350 c 0,15,0
 1392 401 1392 401 1357 403 c 0,1,2
EndSplineSet
Validated: 41
EndChar

StartChar: grave
Encoding: 96 96 67
Width: 742
GlyphClass: 1
Flags: W
LayerCount: 2
Fore
SplineSet
197 2055 m 0,1,2
 114 1959 114 1959 35 1823 c 1,3,4
 13 1776 13 1776 28 1755 c 0,5,6
 195 1581 195 1581 389 1502 c 1,7,8
 435 1490 435 1490 460 1514 c 0,9,10
 548 1590 548 1590 621 1740 c 0,11,12
 637 1781 637 1781 615 1806 c 1,13,14
 487 1906 487 1906 270 2049 c 0,15,0
 224 2081 224 2081 197 2055 c 0,1,2
EndSplineSet
Validated: 41
EndChar

StartChar: a
Encoding: 97 97 68
Width: 1702
GlyphClass: 1
Flags: W
LayerCount: 2
Fore
SplineSet
1073 274 m 1,1,2
 1159 -28 1159 -28 1168 -53 c 0,3,4
 1176 -76 1176 -76 1230 -66 c 1,5,6
 1269 -53 1269 -53 1277 -76.59765625 c 0,7,8
 1312.61413451 -181.902245048 1312.61413451 -181.902245048 1357 -186.405273438 c 0,9,10
 1556 -209 1556 -209 1547 -194 c 0,11,12
 1491.02940865 -23.2205661598 1491.02940865 -23.2205661598 1613 57 c 0,13,14
 1638 83 1638 83 1637 90 c 0,15,16
 1502 777 1502 777 1310 1410 c 0,17,18
 1300 1443 1300 1443 1250 1449 c 0,19,20
 878 1491 878 1491 427 1436 c 0,21,22
 394 1432 394 1432 386 1410 c 0,23,24
 244 962 244 962 48 81 c 0,25,26
 44 63 44 63 73 48 c 0,27,28
 238 -35 238 -35 441 -76 c 0,29,30
 495 -87 495 -87 503 -63 c 0,31,32
 556 97 556 97 606 271 c 1,33,0
 856 257 856 257 1073 274 c 1,1,2
927 889 m 1,34,35
 958 755 958 755 992 623 c 1,36,37
 861 622 861 622 702 620 c 1,38,39
 737 754 737 754 768 888 c 1,40,41
 850 888 850 888 927 889 c 1,34,35
EndSplineSet
Validated: 524329
EndChar

StartChar: bar
Encoding: 124 124 95
Width: 662
GlyphClass: 1
Flags: W
LayerCount: 2
Fore
SplineSet
518 1440 m 1,0,1
 384 1468 384 1468 131 1447 c 1,2,3
 60 1430 60 1430 59 1384 c 0,4,5
 44 1138 44 1138 45 38 c 1,6,7
 51 5 51 5 90 -3 c 1,8,9
 345 -21 345 -21 522 1 c 1,10,11
 562 12 562 12 552 41 c 1,12,13
 570 531 570 531 548 1405 c 0,14,15
 548 1427 548 1427 518 1440 c 1,0,1
EndSplineSet
Validated: 41
EndChar

StartChar: asciitilde
Encoding: 126 126 97
Width: 1075
GlyphClass: 1
Flags: W
LayerCount: 2
Fore
SplineSet
940 1654 m 0,0,1
 970 1663 970 1663 968 1735 c 2,2,-1
 970 2043 l 1,3,4
 962 2082 962 2082 944 2073 c 1,5,6
 676 2019 676 2019 517 2061 c 1,7,8
 168 2110 168 2110 51 2076 c 1,9,10
 34 2076 34 2076 26 2034 c 1,11,-1
 28 1701 l 2,12,13
 26 1632 26 1632 50 1632 c 1,14,15
 147 1675 147 1675 240 1684 c 1,16,17
 366 1690 366 1690 529 1631 c 1,18,19
 732 1586 732 1586 940 1654 c 0,0,1
EndSplineSet
Validated: 41
EndChar

StartChar: exclamdown
Encoding: 161 161 98
Width: 660
GlyphClass: 1
Flags: W
LayerCount: 2
Fore
SplineSet
583 1095 m 0,1,2
 597 1223 597 1223 576 1398 c 0,3,4
 575 1431 575 1431 551 1440 c 1,5,6
 314 1487 314 1487 110 1441 c 1,7,8
 65 1424 65 1424 59 1390 c 0,9,10
 30 1277 30 1277 59 1106 c 0,11,12
 69 1063 69 1063 99 1062 c 0,13,14
 261 1053 261 1053 521 1060 c 0,15,0
 578 1062 578 1062 583 1095 c 0,1,2
475 983 m 0,16,17
 234 1001 234 1001 135 985 c 0,18,19
 106 981 106 981 106 958 c 0,20,21
 44 528 44 528 43 7 c 0,22,23
 44 -13 44 -13 86 -19 c 0,24,25
 325 -38 325 -38 563 -17 c 0,26,27
 583 -12 583 -12 583 4 c 0,28,29
 579 636 579 636 531 954 c 0,30,31
 528 979 528 979 475 983 c 0,16,17
EndSplineSet
Validated: 41
EndChar

StartChar: dieresis
Encoding: 168 168 105
Width: 1024
GlyphClass: 1
Flags: W
LayerCount: 2
Fore
SplineSet
601 1611 m 0,1,2
 727 1600 727 1600 884 1611 c 0,3,4
 935 1618 935 1618 944 1637 c 1,5,6
 991 1829 991 1829 945 1995 c 1,7,8
 928 2031 928 2031 894 2036 c 0,9,10
 781 2059 781 2059 617 2038 c 0,11,12
 574 2030 574 2030 566 2003 c 1,13,14
 551 1825 551 1825 564 1662 c 0,15,0
 564 1616 564 1616 601 1611 c 0,1,2
485 1662 m 0,16,17
 498 1825 498 1825 483 2003 c 1,18,19
 475 2030 475 2030 432 2038 c 0,20,21
 268 2059 268 2059 155 2036 c 0,22,23
 121 2031 121 2031 104 1995 c 1,24,25
 58 1829 58 1829 105 1637 c 1,26,27
 114 1618 114 1618 165 1611 c 0,28,29
 322 1600 322 1600 448 1611 c 0,30,31
 485 1616 485 1616 485 1662 c 0,16,17
EndSplineSet
Validated: 41
EndChar

StartChar: degree
Encoding: 176 176 112
Width: 748
GlyphClass: 1
Flags: W
LayerCount: 2
Fore
SplineSet
56 779 m 0,0,1
 -5 869 -5 869 4 1260 c 1,2,3
 12 1365 12 1365 113 1424 c 0,4,5
 214 1479 214 1479 499 1451 c 0,6,7
 623 1436 623 1436 646 1228 c 1,8,9
 666 919 666 919 599 790 c 1,10,11
 544 694 544 694 308 696 c 0,12,13
 107 700 107 700 56 779 c 0,0,1
248 1010 m 0,14,15
 261 960 261 960 295 951 c 0,16,17
 391 936 391 936 402 981 c 1,18,19
 420 1175 420 1175 373 1195 c 0,20,21
 311 1219 311 1219 256 1195 c 0,22,23
 217 1175 217 1175 248 1010 c 0,14,15
EndSplineSet
Validated: 33
EndChar

StartChar: acute
Encoding: 180 180 116
Width: 742
GlyphClass: 1
Flags: W
LayerCount: 2
Fore
SplineSet
379 2049 m 0,0,1
 162 1906 162 1906 34 1806 c 1,2,3
 12 1781 12 1781 28 1740 c 0,4,5
 101 1590 101 1590 189 1514 c 0,6,7
 214 1490 214 1490 260 1502 c 1,8,9
 454 1581 454 1581 621 1755 c 0,10,11
 636 1776 636 1776 614 1823 c 1,12,13
 535 1959 535 1959 452 2055 c 0,14,15
 425 2081 425 2081 379 2049 c 0,0,1
EndSplineSet
Validated: 41
EndChar

StartChar: cedilla
Encoding: 184 184 120
Width: 694
GlyphClass: 1
Flags: W
LayerCount: 2
Fore
SplineSet
506 -53 m 1,0,1
 568 -100 568 -100 581 -187 c 1,2,3
 591 -318 591 -318 491 -372 c 0,4,5
 431 -405 431 -405 208 -393 c 1,6,7
 44 -375 44 -375 20 -319 c 1,8,9
 70 -205 70 -205 147 -190 c 1,10,11
 215 -281 215 -281 307 -223 c 1,12,13
 351 -188 351 -188 296 -161 c 1,14,15
 197 -145 197 -145 95 -144 c 1,16,17
 91 -50 91 -50 93 60 c 1,18,19
 198 64 198 64 325 62 c 1,20,21
 319 12 319 12 322 -33 c 1,22,23
 487 -30 487 -30 506 -53 c 1,0,1
EndSplineSet
Validated: 33
EndChar

StartChar: questiondown
Encoding: 191 191 127
Width: 1492
GlyphClass: 1
Flags: W
LayerCount: 2
Fore
SplineSet
976 1041 m 1,1,2
 538 1064 538 1064 506 1044 c 1,3,4
 509 918 509 918 361 892 c 1,5,6
 168 836 168 836 117 769 c 1,7,8
 -34 521 -34 521 55 245 c 1,9,10
 154 -1 154 -1 558 -29 c 0,11,12
 919 -58 919 -58 1258 164 c 1,13,14
 1286 174 1286 174 1282 188 c 0,15,16
 1278 285 1278 285 1135 555 c 0,17,18
 1124 573 1124 573 1086 565 c 1,19,20
 837 400 837 400 560 399 c 1,21,22
 521 405 521 405 508 437 c 0,23,24
 496 478 496 478 498 505 c 0,25,26
 499 537 499 537 532 559 c 0,27,28
 561 577 561 577 605 588 c 0,29,30
 800 630 800 630 896.5 693.5 c 128,-1,31
 993 757 993 757 1007 849 c 1,32,0
 1009 1007 1009 1007 976 1041 c 1,1,2
545 1096 m 0,33,34
 805 1089 805 1089 967 1098 c 1,35,36
 1000 1105 1000 1105 1010 1147 c 0,37,38
 1036 1305 1036 1305 1007 1414 c 0,39,40
 1001 1447 1001 1447 956 1464 c 1,41,42
 752 1508 752 1508 515 1463 c 1,43,44
 491 1454 491 1454 482 1405 c 1,45,46
 469 1253 469 1253 482 1131 c 0,47,48
 489 1096 489 1096 545 1096 c 0,33,34
EndSplineSet
Validated: 41
EndChar

StartChar: Agrave
Encoding: 192 192 128
Width: 1702
GlyphClass: 1
Flags: W
LayerCount: 2
Fore
SplineSet
1082 291 m 1,1,2
 1129 126 1129 126 1180 -36 c 0,3,4
 1188 -59 1188 -59 1242 -49 c 0,5,6
 1468 0 1468 0 1613 57 c 0,7,8
 1639 67 1639 67 1637 90 c 0,9,10
 1483 859 1483 859 1310 1410 c 0,11,12
 1300 1442 1300 1442 1250 1449 c 0,13,14
 865 1491 865 1491 427 1436 c 0,15,16
 393 1428 393 1428 386 1410 c 0,17,18
 213 859 213 859 45 67 c 0,19,20
 43 44 43 44 70 34 c 0,21,22
 211 -41 211 -41 438 -90 c 0,23,24
 492 -100 492 -100 500 -77 c 0,25,26
 556 97 556 97 606 271 c 1,27,0
 856 277 856 277 1082 291 c 1,1,2
927 889 m 1,29,30
 958 755 958 755 992 623 c 1,31,32
 861 622 861 622 702 620 c 1,33,34
 737 754 737 754 768 888 c 1,35,28
 850 888 850 888 927 889 c 1,29,30
731 2066 m 0,37,38
 648 1970 648 1970 569 1834 c 1,39,40
 547 1787 547 1787 562 1766 c 0,41,42
 729 1592 729 1592 923 1513 c 1,43,44
 969 1501 969 1501 994 1525 c 0,45,46
 1082 1601 1082 1601 1155 1751 c 0,47,48
 1171 1792 1171 1792 1149 1817 c 1,49,50
 1021 1917 1021 1917 804 2060 c 0,51,36
 758 2092 758 2092 731 2066 c 0,37,38
EndSplineSet
Validated: 41
EndChar

StartChar: Aacute
Encoding: 193 193 129
Width: 1702
GlyphClass: 1
Flags: W
LayerCount: 2
Fore
SplineSet
1082 291 m 1,1,2
 1129 126 1129 126 1180 -36 c 0,3,4
 1188 -59 1188 -59 1242 -49 c 0,5,6
 1468 0 1468 0 1613 57 c 0,7,8
 1639 67 1639 67 1637 90 c 0,9,10
 1483 859 1483 859 1310 1410 c 0,11,12
 1300 1442 1300 1442 1250 1449 c 0,13,14
 865 1491 865 1491 427 1436 c 0,15,16
 393 1428 393 1428 386 1410 c 0,17,18
 213 859 213 859 45 67 c 0,19,20
 43 44 43 44 70 34 c 0,21,22
 211 -41 211 -41 438 -90 c 0,23,24
 492 -100 492 -100 500 -77 c 0,25,26
 556 97 556 97 606 271 c 1,27,0
 856 277 856 277 1082 291 c 1,1,2
927 889 m 1,29,30
 958 755 958 755 992 623 c 1,31,32
 861 622 861 622 702 620 c 1,33,34
 737 754 737 754 768 888 c 1,35,28
 850 888 850 888 927 889 c 1,29,30
899 2064 m 0,36,37
 682 1921 682 1921 554 1821 c 1,38,39
 532 1796 532 1796 548 1755 c 0,40,41
 621 1605 621 1605 709 1529 c 0,42,43
 734 1505 734 1505 780 1517 c 1,44,45
 974 1596 974 1596 1141 1770 c 0,46,47
 1156 1791 1156 1791 1134 1838 c 1,48,49
 1055 1974 1055 1974 972 2070 c 0,50,51
 945 2096 945 2096 899 2064 c 0,36,37
EndSplineSet
Validated: 41
EndChar

StartChar: Acircumflex
Encoding: 194 194 130
Width: 1702
GlyphClass: 1
Flags: W
LayerCount: 2
Fore
SplineSet
1082 291 m 1,1,2
 1129 126 1129 126 1180 -36 c 0,3,4
 1188 -59 1188 -59 1242 -49 c 0,5,6
 1468 0 1468 0 1613 57 c 0,7,8
 1639 67 1639 67 1637 90 c 0,9,10
 1483 859 1483 859 1310 1410 c 0,11,12
 1300 1442 1300 1442 1250 1449 c 0,13,14
 865 1491 865 1491 427 1436 c 0,15,16
 393 1428 393 1428 386 1410 c 0,17,18
 213 859 213 859 45 67 c 0,19,20
 43 44 43 44 70 34 c 0,21,22
 211 -41 211 -41 438 -90 c 0,23,24
 492 -100 492 -100 500 -77 c 0,25,26
 556 97 556 97 606 271 c 1,27,0
 856 277 856 277 1082 291 c 1,1,2
927 889 m 1,29,30
 958 755 958 755 992 623 c 1,31,32
 861 622 861 622 702 620 c 1,33,34
 737 754 737 754 768 888 c 1,35,28
 850 888 850 888 927 889 c 1,29,30
831 2075 m 0,37,38
 637 1996 637 1996 470 1822 c 0,39,40
 455 1801 455 1801 477 1754 c 1,41,42
 556 1618 556 1618 639 1522 c 0,43,44
 666 1495 666 1495 712 1527 c 0,45,46
 791 1579 791 1579 858 1625 c 1,47,48
 925 1579 925 1579 1004 1527 c 0,49,50
 1050 1495 1050 1495 1077 1522 c 0,51,52
 1159 1618 1159 1618 1238 1754 c 1,53,54
 1260 1801 1260 1801 1246 1822 c 1,55,56
 1078 1996 1078 1996 885 2075 c 0,57,36
 856 2083 856 2083 831 2075 c 0,37,38
EndSplineSet
Validated: 41
EndChar

StartChar: Atilde
Encoding: 195 195 131
Width: 1702
GlyphClass: 1
Flags: W
LayerCount: 2
Fore
SplineSet
1082 291 m 1,1,2
 1129 126 1129 126 1180 -36 c 0,3,4
 1188 -59 1188 -59 1242 -49 c 0,5,6
 1468 0 1468 0 1613 57 c 0,7,8
 1639 67 1639 67 1637 90 c 0,9,10
 1483 859 1483 859 1310 1410 c 0,11,12
 1300 1442 1300 1442 1250 1449 c 0,13,14
 865 1491 865 1491 427 1436 c 0,15,16
 393 1428 393 1428 386 1410 c 0,17,18
 213 859 213 859 45 67 c 0,19,20
 43 44 43 44 70 34 c 0,21,22
 211 -41 211 -41 438 -90 c 0,23,24
 492 -100 492 -100 500 -77 c 0,25,26
 556 97 556 97 606 271 c 1,27,0
 856 277 856 277 1082 291 c 1,1,2
927 889 m 1,29,30
 958 755 958 755 992 623 c 1,31,32
 861 622 861 622 702 620 c 1,33,34
 737 754 737 754 768 888 c 1,35,28
 850 888 850 888 927 889 c 1,29,30
1275 1605 m 0,36,37
 1305 1614 1305 1614 1303 1686 c 2,38,-1
 1305 1994 l 1,39,40
 1297 2033 1297 2033 1279 2024 c 1,41,42
 1011 1970 1011 1970 852 2012 c 1,43,44
 503 2061 503 2061 386 2027 c 1,45,46
 369 2027 369 2027 361 1985 c 1,47,-1
 363 1652 l 2,48,49
 361 1583 361 1583 385 1583 c 1,50,51
 482 1626 482 1626 575 1635 c 1,52,53
 701 1641 701 1641 864 1582 c 1,54,55
 1067 1537 1067 1537 1275 1605 c 0,36,37
EndSplineSet
Validated: 41
EndChar

StartChar: Adieresis
Encoding: 196 196 132
Width: 1702
GlyphClass: 1
Flags: W
LayerCount: 2
Fore
SplineSet
1082 291 m 1,1,2
 1129 126 1129 126 1180 -36 c 0,3,4
 1188 -59 1188 -59 1242 -49 c 0,5,6
 1468 0 1468 0 1613 57 c 0,7,8
 1639 67 1639 67 1637 90 c 0,9,10
 1483 859 1483 859 1310 1410 c 0,11,12
 1300 1442 1300 1442 1250 1449 c 0,13,14
 865 1491 865 1491 427 1436 c 0,15,16
 393 1428 393 1428 386 1410 c 0,17,18
 213 859 213 859 45 67 c 0,19,20
 43 44 43 44 70 34 c 0,21,22
 211 -41 211 -41 438 -90 c 0,23,24
 492 -100 492 -100 500 -77 c 0,25,26
 556 97 556 97 606 271 c 1,27,0
 856 277 856 277 1082 291 c 1,1,2
927 889 m 1,29,30
 958 755 958 755 992 623 c 1,31,32
 861 622 861 622 702 620 c 1,33,34
 737 754 737 754 768 888 c 1,35,28
 850 888 850 888 927 889 c 1,29,30
908 1597 m 0,37,38
 1034 1586 1034 1586 1191 1597 c 0,39,40
 1242 1604 1242 1604 1251 1623 c 1,41,42
 1298 1815 1298 1815 1252 1981 c 1,43,44
 1235 2017 1235 2017 1201 2022 c 0,45,46
 1088 2045 1088 2045 924 2024 c 0,47,48
 881 2016 881 2016 873 1989 c 1,49,50
 858 1811 858 1811 871 1648 c 0,51,36
 871 1602 871 1602 908 1597 c 0,37,38
792 1648 m 0,52,53
 805 1811 805 1811 790 1989 c 1,54,55
 782 2016 782 2016 739 2024 c 0,56,57
 575 2045 575 2045 462 2022 c 0,58,59
 428 2017 428 2017 411 1981 c 1,60,61
 365 1815 365 1815 412 1623 c 1,62,63
 421 1604 421 1604 472 1597 c 0,64,65
 629 1586 629 1586 755 1597 c 0,66,67
 792 1602 792 1602 792 1648 c 0,52,53
EndSplineSet
Validated: 41
EndChar

StartChar: Aring
Encoding: 197 197 133
Width: 1702
GlyphClass: 1
Flags: W
LayerCount: 2
Fore
SplineSet
1082 291 m 1,1,2
 1129 126 1129 126 1180 -36 c 0,3,4
 1188 -59 1188 -59 1242 -49 c 0,5,6
 1468 0 1468 0 1613 57 c 0,7,8
 1639 67 1639 67 1637 90 c 0,9,10
 1483 859 1483 859 1310 1410 c 0,11,12
 1300 1442 1300 1442 1250 1449 c 0,13,14
 865 1491 865 1491 427 1436 c 0,15,16
 393 1428 393 1428 386 1410 c 0,17,18
 213 859 213 859 45 67 c 0,19,20
 43 44 43 44 70 34 c 0,21,22
 211 -41 211 -41 438 -90 c 0,23,24
 492 -100 492 -100 500 -77 c 0,25,26
 556 97 556 97 606 271 c 1,27,0
 856 277 856 277 1082 291 c 1,1,2
927 889 m 1,29,30
 958 755 958 755 992 623 c 1,31,32
 861 622 861 622 702 620 c 1,33,34
 737 754 737 754 768 888 c 1,35,28
 850 888 850 888 927 889 c 1,29,30
590 1586 m 0,36,37
 534 1653 534 1653 542 1944 c 1,38,39
 549 2022 549 2022 644 2066 c 0,40,41
 737 2107 737 2107 1002 2087 c 0,42,43
 1117 2076 1117 2076 1139 1921 c 1,44,45
 1157 1690 1157 1690 1095 1594 c 1,46,47
 1044 1523 1044 1523 824 1524 c 0,48,49
 638 1527 638 1527 590 1586 c 0,36,37
769 1758 m 0,50,51
 780 1720 780 1720 813 1714 c 0,52,53
 902 1702 902 1702 912 1736 c 1,54,55
 928 1881 928 1881 885 1896 c 0,56,57
 827 1914 827 1914 776 1896 c 0,58,59
 739 1881 739 1881 769 1758 c 0,50,51
EndSplineSet
Validated: 41
EndChar

StartChar: AE
Encoding: 198 198 134
Width: 2376
GlyphClass: 1
Flags: W
LayerCount: 2
Fore
SplineSet
927 889 m 1,0,1
 958 755 958 755 992 623 c 1,2,3
 861 622 861 622 702 620 c 1,4,5
 737 754 737 754 768 888 c 1,6,7
 850 888 850 888 927 889 c 1,0,1
2262 29 m 0,9,10
 2287 30 2287 30 2291 58 c 0,11,12
 2313 196 2313 196 2295 419 c 0,13,14
 2291 468 2291 468 2264 470 c 0,15,16
 2017 454 2017 454 1579 441 c 1,17,18
 1580 492 1580 492 1580 543 c 1,19,20
 1816 554 1816 554 2003 560 c 0,21,22
 2025 561 2025 561 2029 582 c 0,23,24
 2049 691 2049 691 2033 866 c 0,25,26
 2029 904 2029 904 2005 905 c 0,27,28
 1837 906 1837 906 1577 899 c 1,29,30
 1576 947 1576 947 1575 995 c 1,31,32
 1874 1005 1874 1005 2171 1006 c 0,33,34
 2203 1009 2203 1009 2207 1058 c 0,35,36
 2223 1272 2223 1272 2193 1409 c 0,37,38
 2186 1437 2186 1437 2156 1436 c 0,39,40
 1682 1448 1682 1448 1296 1431 c 1,41,42
 1280 1445 1280 1445 1250 1449 c 0,43,44
 865 1491 865 1491 427 1436 c 0,45,46
 393 1428 393 1428 386 1410 c 0,47,48
 213 859 213 859 45 67 c 0,49,50
 43 44 43 44 70 34 c 0,51,52
 211 -41 211 -41 438 -90 c 0,53,54
 492 -100 492 -100 500 -77 c 0,55,56
 556 97 556 97 606 271 c 1,57,58
 856 277 856 277 1082 291 c 1,59,60
 1129 126 1129 126 1180 -36 c 0,61,62
 1188 -59 1188 -59 1242 -49 c 0,63,64
 1344 -27 1344 -27 1430 -3 c 1,65,8
 1927 -1 1927 -1 2262 29 c 0,9,10
EndSplineSet
Validated: 41
EndChar

StartChar: Ccedilla
Encoding: 199 199 135
Width: 1479
GlyphClass: 1
Flags: W
LayerCount: 2
Fore
SplineSet
604 -10 m 1,0,1
 452 -5 452 -5 303 23 c 1,2,3
 158 59 158 59 92 161 c 1,4,5
 -15 356 -15 356 53 1074 c 1,6,7
 95 1355 95 1355 259 1390 c 1,8,9
 850 1481 850 1481 1316 1395 c 1,10,11
 1352 1380 1352 1380 1347 1358 c 0,12,13
 1318 1174 1318 1174 1251 1016 c 0,14,15
 1235 987 1235 987 1186 999 c 1,16,17
 874 1029 874 1029 598 948 c 0,18,19
 545 934 545 934 530 891 c 1,20,21
 515 813 515 813 522 678 c 0,22,23
 536 502 536 502 583 423 c 1,24,25
 608 393 608 393 644 387 c 0,26,27
 880 358 880 358 1269 471 c 0,28,29
 1295 481 1295 481 1304 463 c 0,30,31
 1361 362 1361 362 1401 151 c 0,32,33
 1405 126 1405 126 1381 115 c 0,34,35
 1103 20 1103 20 833 -3 c 1,36,37
 833 -24 833 -24 834 -44 c 1,38,39
 999 -41 999 -41 1018 -64 c 1,40,41
 1080 -111 1080 -111 1093 -198 c 1,42,43
 1103 -329 1103 -329 1003 -383 c 0,44,45
 943 -416 943 -416 720 -404 c 1,46,47
 556 -386 556 -386 532 -330 c 1,48,49
 582 -216 582 -216 659 -201 c 1,50,51
 727 -292 727 -292 819 -234 c 1,52,53
 863 -199 863 -199 808 -172 c 1,54,55
 709 -156 709 -156 607 -155 c 1,56,57
 604 -86 604 -86 604 -10 c 1,0,1
EndSplineSet
Validated: 33
EndChar

StartChar: Egrave
Encoding: 200 200 136
Width: 1487
GlyphClass: 1
Flags: W
LayerCount: 2
Fore
SplineSet
687 549 m 1,1,2
 923 560 923 560 1110 566 c 0,3,4
 1132 567 1132 567 1136 588 c 0,5,6
 1156 697 1156 697 1140 872 c 0,7,8
 1136 910 1136 910 1112 911 c 0,9,10
 944 912 944 912 684 905 c 1,11,12
 683 953 683 953 682 1001 c 1,13,14
 981 1011 981 1011 1278 1012 c 0,15,16
 1310 1015 1310 1015 1314 1064 c 0,17,18
 1330 1278 1330 1278 1300 1415 c 0,19,20
 1293 1443 1293 1443 1263 1442 c 0,21,22
 554 1460 554 1460 41 1414 c 0,23,24
 14 1412 14 1412 8 1373 c 1,25,26
 11 1184 11 1184 49 988 c 0,27,28
 55 970 55 970 77 971 c 0,29,30
 123 974 123 974 168 977 c 1,31,32
 162 552 162 552 186 38 c 0,33,34
 189 16 189 16 218 12 c 0,35,36
 329 -2 329 -2 488 3 c 1,37,38
 1017 3 1017 3 1369 35 c 0,39,40
 1394 36 1394 36 1398 64 c 0,41,42
 1420 202 1420 202 1402 425 c 0,43,44
 1398 474 1398 474 1371 476 c 0,45,46
 1124 460 1124 460 686 447 c 1,47,0
 687 498 687 498 687 549 c 1,1,2
607 2066 m 0,49,50
 524 1970 524 1970 445 1834 c 1,51,52
 423 1787 423 1787 438 1766 c 0,53,54
 605 1592 605 1592 799 1513 c 1,55,56
 845 1501 845 1501 870 1525 c 0,57,58
 958 1601 958 1601 1031 1751 c 0,59,60
 1047 1792 1047 1792 1025 1817 c 1,61,62
 897 1917 897 1917 680 2060 c 0,63,48
 634 2092 634 2092 607 2066 c 0,49,50
EndSplineSet
Validated: 41
EndChar

StartChar: Eacute
Encoding: 201 201 137
Width: 1487
GlyphClass: 1
Flags: W
LayerCount: 2
Fore
SplineSet
687 549 m 1,1,2
 923 560 923 560 1110 566 c 0,3,4
 1132 567 1132 567 1136 588 c 0,5,6
 1156 697 1156 697 1140 872 c 0,7,8
 1136 910 1136 910 1112 911 c 0,9,10
 944 912 944 912 684 905 c 1,11,12
 683 953 683 953 682 1001 c 1,13,14
 981 1011 981 1011 1278 1012 c 0,15,16
 1310 1015 1310 1015 1314 1064 c 0,17,18
 1330 1278 1330 1278 1300 1415 c 0,19,20
 1293 1443 1293 1443 1263 1442 c 0,21,22
 554 1460 554 1460 41 1414 c 0,23,24
 14 1412 14 1412 8 1373 c 1,25,26
 11 1184 11 1184 49 988 c 0,27,28
 55 970 55 970 77 971 c 0,29,30
 123 974 123 974 168 977 c 1,31,32
 162 552 162 552 186 38 c 0,33,34
 189 16 189 16 218 12 c 0,35,36
 329 -2 329 -2 488 3 c 1,37,38
 1017 3 1017 3 1369 35 c 0,39,40
 1394 36 1394 36 1398 64 c 0,41,42
 1420 202 1420 202 1402 425 c 0,43,44
 1398 474 1398 474 1371 476 c 0,45,46
 1124 460 1124 460 686 447 c 1,47,0
 687 498 687 498 687 549 c 1,1,2
830 2061 m 0,48,49
 613 1918 613 1918 485 1818 c 1,50,51
 463 1793 463 1793 479 1752 c 0,52,53
 552 1602 552 1602 640 1526 c 0,54,55
 665 1502 665 1502 711 1514 c 1,56,57
 905 1593 905 1593 1072 1767 c 0,58,59
 1087 1788 1087 1788 1065 1835 c 1,60,61
 986 1971 986 1971 903 2067 c 0,62,63
 876 2093 876 2093 830 2061 c 0,48,49
EndSplineSet
Validated: 41
EndChar

StartChar: Ecircumflex
Encoding: 202 202 138
Width: 1487
GlyphClass: 1
Flags: W
LayerCount: 2
Fore
SplineSet
687 549 m 1,1,2
 923 560 923 560 1110 566 c 0,3,4
 1132 567 1132 567 1136 588 c 0,5,6
 1156 697 1156 697 1140 872 c 0,7,8
 1136 910 1136 910 1112 911 c 0,9,10
 944 912 944 912 684 905 c 1,11,12
 683 953 683 953 682 1001 c 1,13,14
 981 1011 981 1011 1278 1012 c 0,15,16
 1310 1015 1310 1015 1314 1064 c 0,17,18
 1330 1278 1330 1278 1300 1415 c 0,19,20
 1293 1443 1293 1443 1263 1442 c 0,21,22
 554 1460 554 1460 41 1414 c 0,23,24
 14 1412 14 1412 8 1373 c 1,25,26
 11 1184 11 1184 49 988 c 0,27,28
 55 970 55 970 77 971 c 0,29,30
 123 974 123 974 168 977 c 1,31,32
 162 552 162 552 186 38 c 0,33,34
 189 16 189 16 218 12 c 0,35,36
 329 -2 329 -2 488 3 c 1,37,38
 1017 3 1017 3 1369 35 c 0,39,40
 1394 36 1394 36 1398 64 c 0,41,42
 1420 202 1420 202 1402 425 c 0,43,44
 1398 474 1398 474 1371 476 c 0,45,46
 1124 460 1124 460 686 447 c 1,47,0
 687 498 687 498 687 549 c 1,1,2
681 2075 m 0,49,50
 487 1996 487 1996 320 1822 c 0,51,52
 305 1801 305 1801 327 1754 c 1,53,54
 406 1618 406 1618 489 1522 c 0,55,56
 516 1495 516 1495 562 1527 c 0,57,58
 641 1579 641 1579 708 1625 c 1,59,60
 775 1579 775 1579 854 1527 c 0,61,62
 900 1495 900 1495 927 1522 c 0,63,64
 1009 1618 1009 1618 1088 1754 c 1,65,66
 1110 1801 1110 1801 1096 1822 c 1,67,68
 928 1996 928 1996 735 2075 c 0,69,48
 706 2083 706 2083 681 2075 c 0,49,50
EndSplineSet
Validated: 41
EndChar

StartChar: Edieresis
Encoding: 203 203 139
Width: 1487
GlyphClass: 1
Flags: W
LayerCount: 2
Fore
SplineSet
687 549 m 1,1,2
 923 560 923 560 1110 566 c 0,3,4
 1132 567 1132 567 1136 588 c 0,5,6
 1156 697 1156 697 1140 872 c 0,7,8
 1136 910 1136 910 1112 911 c 0,9,10
 944 912 944 912 684 905 c 1,11,12
 683 953 683 953 682 1001 c 1,13,14
 981 1011 981 1011 1278 1012 c 0,15,16
 1310 1015 1310 1015 1314 1064 c 0,17,18
 1330 1278 1330 1278 1300 1415 c 0,19,20
 1293 1443 1293 1443 1263 1442 c 0,21,22
 554 1460 554 1460 41 1414 c 0,23,24
 14 1412 14 1412 8 1373 c 1,25,26
 11 1184 11 1184 49 988 c 0,27,28
 55 970 55 970 77 971 c 0,29,30
 123 974 123 974 168 977 c 1,31,32
 162 552 162 552 186 38 c 0,33,34
 189 16 189 16 218 12 c 0,35,36
 329 -2 329 -2 488 3 c 1,37,38
 1017 3 1017 3 1369 35 c 0,39,40
 1394 36 1394 36 1398 64 c 0,41,42
 1420 202 1420 202 1402 425 c 0,43,44
 1398 474 1398 474 1371 476 c 0,45,46
 1124 460 1124 460 686 447 c 1,47,0
 687 498 687 498 687 549 c 1,1,2
758 1608 m 0,49,50
 884 1597 884 1597 1041 1608 c 0,51,52
 1092 1615 1092 1615 1101 1634 c 1,53,54
 1148 1826 1148 1826 1102 1992 c 1,55,56
 1085 2028 1085 2028 1051 2033 c 0,57,58
 938 2056 938 2056 774 2035 c 0,59,60
 731 2027 731 2027 723 2000 c 1,61,62
 708 1822 708 1822 721 1659 c 0,63,48
 721 1613 721 1613 758 1608 c 0,49,50
642 1659 m 0,64,65
 655 1822 655 1822 640 2000 c 1,66,67
 632 2027 632 2027 589 2035 c 0,68,69
 425 2056 425 2056 312 2033 c 0,70,71
 278 2028 278 2028 261 1992 c 1,72,73
 215 1826 215 1826 262 1634 c 1,74,75
 271 1615 271 1615 322 1608 c 0,76,77
 479 1597 479 1597 605 1608 c 0,78,79
 642 1613 642 1613 642 1659 c 0,64,65
EndSplineSet
Validated: 41
EndChar

StartChar: Igrave
Encoding: 204 204 140
Width: 660
GlyphClass: 1
Flags: W
LayerCount: 2
Fore
SplineSet
521 37 m 0,1,2
 539 415 539 415 543 1165 c 0,3,4
 543 1184 543 1184 523 1191 c 1,5,6
 315 1215 315 1215 106 1193 c 0,7,8
 64 1186 64 1186 63 1161 c 0,9,10
 64 543 64 543 96 33 c 0,11,12
 96 5 96 5 125 1 c 0,13,14
 224 -18 224 -18 465 3 c 0,15,0
 518 8 518 8 521 37 c 0,1,2
191 1947 m 0,17,18
 108 1851 108 1851 29 1715 c 1,19,20
 7 1668 7 1668 22 1647 c 0,21,22
 189 1473 189 1473 383 1394 c 1,23,24
 429 1382 429 1382 454 1406 c 0,25,26
 542 1482 542 1482 615 1632 c 0,27,28
 631 1673 631 1673 609 1698 c 1,29,30
 481 1798 481 1798 264 1941 c 0,31,16
 218 1973 218 1973 191 1947 c 0,17,18
EndSplineSet
Validated: 41
EndChar

StartChar: Iacute
Encoding: 205 205 141
Width: 660
GlyphClass: 1
Flags: W
LayerCount: 2
Fore
SplineSet
521 37 m 0,1,2
 539 415 539 415 543 1165 c 0,3,4
 543 1184 543 1184 523 1191 c 1,5,6
 315 1215 315 1215 106 1193 c 0,7,8
 64 1186 64 1186 63 1161 c 0,9,10
 64 543 64 543 96 33 c 0,11,12
 96 5 96 5 125 1 c 0,13,14
 224 -18 224 -18 465 3 c 0,15,0
 518 8 518 8 521 37 c 0,1,2
388 1946 m 0,16,17
 171 1803 171 1803 43 1703 c 1,18,19
 21 1678 21 1678 37 1637 c 0,20,21
 110 1487 110 1487 198 1411 c 0,22,23
 223 1387 223 1387 269 1399 c 1,24,25
 463 1478 463 1478 630 1652 c 0,26,27
 645 1673 645 1673 623 1720 c 1,28,29
 544 1856 544 1856 461 1952 c 0,30,31
 434 1978 434 1978 388 1946 c 0,16,17
EndSplineSet
Validated: 41
EndChar

StartChar: Icircumflex
Encoding: 206 206 142
Width: 743
GlyphClass: 1
Flags: W
LayerCount: 2
Fore
SplineSet
570 37 m 0,1,2
 588 415 588 415 592 1165 c 0,3,4
 592 1184 592 1184 572 1191 c 1,5,6
 364 1215 364 1215 155 1193 c 0,7,8
 113 1186 113 1186 112 1161 c 0,9,10
 113 543 113 543 145 33 c 0,11,12
 145 5 145 5 174 1 c 0,13,14
 273 -18 273 -18 514 3 c 0,15,0
 567 8 567 8 570 37 c 0,1,2
325 1980 m 0,17,18
 131 1901 131 1901 -36 1727 c 0,19,20
 -51 1706 -51 1706 -29 1659 c 1,21,22
 50 1523 50 1523 133 1427 c 0,23,24
 160 1400 160 1400 206 1432 c 0,25,26
 285 1484 285 1484 352 1530 c 1,27,28
 419 1484 419 1484 498 1432 c 0,29,30
 544 1400 544 1400 571 1427 c 0,31,32
 653 1523 653 1523 732 1659 c 1,33,34
 754 1706 754 1706 740 1727 c 1,35,36
 572 1901 572 1901 379 1980 c 0,37,16
 350 1988 350 1988 325 1980 c 0,17,18
EndSplineSet
Validated: 41
EndChar

StartChar: Idieresis
Encoding: 207 207 143
Width: 830
GlyphClass: 1
Flags: W
LayerCount: 2
Fore
SplineSet
605 37 m 0,1,2
 623 415 623 415 627 1165 c 0,3,4
 627 1184 627 1184 607 1191 c 1,5,6
 399 1215 399 1215 190 1193 c 0,7,8
 148 1186 148 1186 147 1161 c 0,9,10
 148 543 148 543 180 33 c 0,11,12
 180 5 180 5 209 1 c 0,13,14
 308 -18 308 -18 549 3 c 0,15,0
 602 8 602 8 605 37 c 0,1,2
466 1412 m 0,17,18
 592 1401 592 1401 749 1412 c 0,19,20
 800 1419 800 1419 809 1438 c 1,21,22
 856 1630 856 1630 810 1796 c 1,23,24
 793 1832 793 1832 759 1837 c 0,25,26
 646 1860 646 1860 482 1839 c 0,27,28
 439 1831 439 1831 431 1804 c 1,29,30
 416 1626 416 1626 429 1463 c 0,31,16
 429 1417 429 1417 466 1412 c 0,17,18
350 1463 m 0,32,33
 363 1626 363 1626 348 1804 c 1,34,35
 340 1831 340 1831 297 1839 c 0,36,37
 133 1860 133 1860 20 1837 c 0,38,39
 -14 1832 -14 1832 -31 1796 c 1,40,41
 -77 1630 -77 1630 -30 1438 c 1,42,43
 -21 1419 -21 1419 30 1412 c 0,44,45
 187 1401 187 1401 313 1412 c 0,46,47
 350 1417 350 1417 350 1463 c 0,32,33
EndSplineSet
Validated: 41
EndChar

StartChar: Eth
Encoding: 208 208 144
Width: 1833
GlyphClass: 1
Flags: W
LayerCount: 2
Fore
SplineSet
207 67 m 0,1,2
 210 47 210 47 239 43 c 0,3,4
 937 -69 937 -69 1459 35 c 1,5,6
 1628 82 1628 82 1661 330 c 1,7,8
 1728 1058 1728 1058 1623 1258 c 1,9,10
 1558 1363 1558 1363 1416 1404 c 1,11,12
 904 1517 904 1517 93 1387 c 1,13,14
 69 1376 69 1376 73 1350 c 1,15,16
 65 1135 65 1135 92 981 c 1,17,18
 100 963 100 963 126 973 c 1,19,20
 154 976 154 976 190 979 c 1,21,0
 183 573 183 573 207 67 c 0,1,2
695 994 m 1,23,24
 962 1017 962 1017 1086 989 c 0,25,26
 1121 982 1121 982 1146 951 c 1,27,28
 1192 869 1192 869 1201 743 c 0,29,30
 1208 596 1208 596 1193 507 c 1,31,32
 1178 464 1178 464 1126 450 c 0,33,34
 922 404 922 404 698 436 c 1,35,22
 702 710 702 710 695 994 c 1,23,24
952 848 m 0,37,38
 651 853 651 853 54 843 c 0,39,40
 38 843 38 843 34 831 c 0,41,42
 14 707 14 707 32 590 c 0,43,44
 37 565 37 565 57 565 c 0,45,46
 596 563 596 563 950 566 c 0,47,48
 972 567 972 567 976 585 c 0,49,50
 995 673 995 673 979 816 c 0,51,36
 976 847 976 847 952 848 c 0,37,38
EndSplineSet
Validated: 37
EndChar

StartChar: Ntilde
Encoding: 209 209 145
Width: 1558
GlyphClass: 1
Flags: W
LayerCount: 2
Fore
SplineSet
938 4 m 0,1,2
 965 -29 965 -29 981 -31 c 0,3,4
 1241 -35 1241 -35 1405 60 c 0,5,6
 1452 87 1452 87 1457 119 c 1,7,8
 1451 791 1451 791 1417 1374 c 0,9,10
 1417 1406 1417 1406 1385 1415 c 0,11,12
 1280 1450 1280 1450 1025 1461 c 0,13,14
 969 1463 969 1463 966 1429 c 0,15,16
 957 1224 957 1224 950 890 c 1,17,18
 733 1215 733 1215 566 1443 c 0,19,20
 555 1459 555 1459 545 1460 c 0,21,22
 251 1466 251 1466 110 1371 c 0,23,24
 58 1339 58 1339 58 1313 c 0,25,26
 64 641 64 641 98 58 c 0,27,28
 99 26 99 26 130 16 c 0,29,30
 235 -18 235 -18 490 -29 c 0,31,32
 546 -31 546 -31 549 3 c 0,33,34
 558 202 558 202 565 523 c 1,35,0
 775 204 775 204 938 4 c 0,1,2
1162 1591 m 0,36,37
 1192 1600 1192 1600 1190 1672 c 2,38,-1
 1192 1980 l 1,39,40
 1184 2019 1184 2019 1166 2010 c 1,41,42
 898 1956 898 1956 739 1998 c 1,43,44
 390 2047 390 2047 273 2013 c 1,45,46
 256 2013 256 2013 248 1971 c 1,47,-1
 250 1638 l 2,48,49
 248 1569 248 1569 272 1569 c 1,50,51
 369 1612 369 1612 462 1621 c 1,52,53
 588 1627 588 1627 751 1568 c 1,54,55
 954 1523 954 1523 1162 1591 c 0,36,37
EndSplineSet
Validated: 41
EndChar

StartChar: Ograve
Encoding: 210 210 146
Width: 1903
GlyphClass: 1
Flags: W
LayerCount: 2
Fore
SplineSet
1517 1393 m 1,0,1
 1662 1357 1662 1357 1731 1204 c 0,2,3
 1816 1006 1816 1006 1770 349 c 1,4,5
 1729 68 1729 68 1564 33 c 1,6,7
 814 -58 814 -58 284 49 c 1,8,9
 204 70 204 70 153 142 c 1,10,11
 28 341 28 341 30 765 c 1,12,13
 40 1095 40 1095 121 1255 c 1,14,15
 157 1343 157 1343 284 1373 c 0,16,17
 905 1508 905 1508 1517 1393 c 1,0,1
1178 414 m 0,18,19
 1232 424 1232 424 1250 464 c 0,20,21
 1281 533 1281 533 1285 673 c 0,22,23
 1286 852 1286 852 1236 937 c 0,24,25
 1214 968 1214 968 1178 977 c 0,26,27
 946 1022 946 1022 663 980 c 0,28,29
 558 968 558 968 539 849 c 1,30,31
 520 570 520 570 557 486 c 0,32,33
 587 422 587 422 650 406 c 0,34,35
 898 357 898 357 1178 414 c 0,18,19
775 2063 m 0,37,38
 692 1967 692 1967 613 1831 c 1,39,40
 591 1784 591 1784 606 1763 c 0,41,42
 773 1589 773 1589 967 1510 c 1,43,44
 1013 1498 1013 1498 1038 1522 c 0,45,46
 1126 1598 1126 1598 1199 1748 c 0,47,48
 1215 1789 1215 1789 1193 1814 c 1,49,50
 1065 1914 1065 1914 848 2057 c 0,51,36
 802 2089 802 2089 775 2063 c 0,37,38
EndSplineSet
Validated: 41
EndChar

StartChar: Oacute
Encoding: 211 211 147
Width: 1903
GlyphClass: 1
Flags: W
LayerCount: 2
Fore
SplineSet
1517 1393 m 1,0,1
 1662 1357 1662 1357 1731 1204 c 0,2,3
 1816 1006 1816 1006 1770 349 c 1,4,5
 1729 68 1729 68 1564 33 c 1,6,7
 814 -58 814 -58 284 49 c 1,8,9
 204 70 204 70 153 142 c 1,10,11
 28 341 28 341 30 765 c 1,12,13
 40 1095 40 1095 121 1255 c 1,14,15
 157 1343 157 1343 284 1373 c 0,16,17
 905 1508 905 1508 1517 1393 c 1,0,1
1178 414 m 0,18,19
 1232 424 1232 424 1250 464 c 0,20,21
 1281 533 1281 533 1285 673 c 0,22,23
 1286 852 1286 852 1236 937 c 0,24,25
 1214 968 1214 968 1178 977 c 0,26,27
 946 1022 946 1022 663 980 c 0,28,29
 558 968 558 968 539 849 c 1,30,31
 520 570 520 570 557 486 c 0,32,33
 587 422 587 422 650 406 c 0,34,35
 898 357 898 357 1178 414 c 0,18,19
934 2061 m 0,36,37
 717 1918 717 1918 589 1818 c 1,38,39
 567 1793 567 1793 583 1752 c 0,40,41
 656 1602 656 1602 744 1526 c 0,42,43
 769 1502 769 1502 815 1514 c 1,44,45
 1009 1593 1009 1593 1176 1767 c 0,46,47
 1191 1788 1191 1788 1169 1835 c 1,48,49
 1090 1971 1090 1971 1007 2067 c 0,50,51
 980 2093 980 2093 934 2061 c 0,36,37
EndSplineSet
Validated: 41
EndChar

StartChar: Ocircumflex
Encoding: 212 212 148
Width: 1903
GlyphClass: 1
Flags: W
LayerCount: 2
Fore
SplineSet
1517 1393 m 1,0,1
 1662 1357 1662 1357 1731 1204 c 0,2,3
 1816 1006 1816 1006 1770 349 c 1,4,5
 1729 68 1729 68 1564 33 c 1,6,7
 814 -58 814 -58 284 49 c 1,8,9
 204 70 204 70 153 142 c 1,10,11
 28 341 28 341 30 765 c 1,12,13
 40 1095 40 1095 121 1255 c 1,14,15
 157 1343 157 1343 284 1373 c 0,16,17
 905 1508 905 1508 1517 1393 c 1,0,1
1178 414 m 0,18,19
 1232 424 1232 424 1250 464 c 0,20,21
 1281 533 1281 533 1285 673 c 0,22,23
 1286 852 1286 852 1236 937 c 0,24,25
 1214 968 1214 968 1178 977 c 0,26,27
 946 1022 946 1022 663 980 c 0,28,29
 558 968 558 968 539 849 c 1,30,31
 520 570 520 570 557 486 c 0,32,33
 587 422 587 422 650 406 c 0,34,35
 898 357 898 357 1178 414 c 0,18,19
880 2067 m 0,37,38
 686 1988 686 1988 519 1814 c 0,39,40
 504 1793 504 1793 526 1746 c 1,41,42
 605 1610 605 1610 688 1514 c 0,43,44
 715 1487 715 1487 761 1519 c 0,45,46
 840 1571 840 1571 907 1617 c 1,47,48
 974 1571 974 1571 1053 1519 c 0,49,50
 1099 1487 1099 1487 1126 1514 c 0,51,52
 1208 1610 1208 1610 1287 1746 c 1,53,54
 1309 1793 1309 1793 1295 1814 c 1,55,56
 1127 1988 1127 1988 934 2067 c 0,57,36
 905 2075 905 2075 880 2067 c 0,37,38
EndSplineSet
Validated: 41
EndChar

StartChar: Otilde
Encoding: 213 213 149
Width: 1903
GlyphClass: 1
Flags: W
LayerCount: 2
Fore
SplineSet
1517 1393 m 1,0,1
 1662 1357 1662 1357 1731 1204 c 0,2,3
 1816 1006 1816 1006 1770 349 c 1,4,5
 1729 68 1729 68 1564 33 c 1,6,7
 814 -58 814 -58 284 49 c 1,8,9
 204 70 204 70 153 142 c 1,10,11
 28 341 28 341 30 765 c 1,12,13
 40 1095 40 1095 121 1255 c 1,14,15
 157 1343 157 1343 284 1373 c 0,16,17
 905 1508 905 1508 1517 1393 c 1,0,1
1178 414 m 0,18,19
 1232 424 1232 424 1250 464 c 0,20,21
 1281 533 1281 533 1285 673 c 0,22,23
 1286 852 1286 852 1236 937 c 0,24,25
 1214 968 1214 968 1178 977 c 0,26,27
 946 1022 946 1022 663 980 c 0,28,29
 558 968 558 968 539 849 c 1,30,31
 520 570 520 570 557 486 c 0,32,33
 587 422 587 422 650 406 c 0,34,35
 898 357 898 357 1178 414 c 0,18,19
1362 1605 m 0,36,37
 1392 1614 1392 1614 1390 1686 c 2,38,-1
 1392 1994 l 1,39,40
 1384 2033 1384 2033 1366 2024 c 1,41,42
 1098 1970 1098 1970 939 2012 c 1,43,44
 590 2061 590 2061 473 2027 c 1,45,46
 456 2027 456 2027 448 1985 c 1,47,-1
 450 1652 l 2,48,49
 448 1583 448 1583 472 1583 c 1,50,51
 569 1626 569 1626 662 1635 c 1,52,53
 788 1641 788 1641 951 1582 c 1,54,55
 1154 1537 1154 1537 1362 1605 c 0,36,37
EndSplineSet
Validated: 41
EndChar

StartChar: Odieresis
Encoding: 214 214 150
Width: 1903
GlyphClass: 1
Flags: W
LayerCount: 2
Fore
SplineSet
1517 1393 m 1,0,1
 1662 1357 1662 1357 1731 1204 c 0,2,3
 1816 1006 1816 1006 1770 349 c 1,4,5
 1729 68 1729 68 1564 33 c 1,6,7
 814 -58 814 -58 284 49 c 1,8,9
 204 70 204 70 153 142 c 1,10,11
 28 341 28 341 30 765 c 1,12,13
 40 1095 40 1095 121 1255 c 1,14,15
 157 1343 157 1343 284 1373 c 0,16,17
 905 1508 905 1508 1517 1393 c 1,0,1
1178 414 m 0,18,19
 1232 424 1232 424 1250 464 c 0,20,21
 1281 533 1281 533 1285 673 c 0,22,23
 1286 852 1286 852 1236 937 c 0,24,25
 1214 968 1214 968 1178 977 c 0,26,27
 946 1022 946 1022 663 980 c 0,28,29
 558 968 558 968 539 849 c 1,30,31
 520 570 520 570 557 486 c 0,32,33
 587 422 587 422 650 406 c 0,34,35
 898 357 898 357 1178 414 c 0,18,19
997 1592 m 0,37,38
 1123 1581 1123 1581 1280 1592 c 0,39,40
 1331 1599 1331 1599 1340 1618 c 1,41,42
 1387 1810 1387 1810 1341 1976 c 1,43,44
 1324 2012 1324 2012 1290 2017 c 0,45,46
 1177 2040 1177 2040 1013 2019 c 0,47,48
 970 2011 970 2011 962 1984 c 1,49,50
 947 1806 947 1806 960 1643 c 0,51,36
 960 1597 960 1597 997 1592 c 0,37,38
881 1643 m 0,52,53
 894 1806 894 1806 879 1984 c 1,54,55
 871 2011 871 2011 828 2019 c 0,56,57
 664 2040 664 2040 551 2017 c 0,58,59
 517 2012 517 2012 500 1976 c 1,60,61
 454 1810 454 1810 501 1618 c 1,62,63
 510 1599 510 1599 561 1592 c 0,64,65
 718 1581 718 1581 844 1592 c 0,66,67
 881 1597 881 1597 881 1643 c 0,52,53
EndSplineSet
Validated: 41
EndChar

StartChar: multiply
Encoding: 215 215 151
Width: 1115
GlyphClass: 1
Flags: W
LayerCount: 2
Fore
SplineSet
989 871 m 0,1,2
 1001 882 1001 882 989 899 c 0,3,4
 860 1059 860 1059 712 1184 c 0,5,6
 679 1210 679 1210 664 1196 c 0,7,8
 583 1117 583 1117 509 1044 c 1,9,10
 435 1116 435 1116 354 1194 c 0,11,12
 343 1205 343 1205 326 1194 c 0,13,14
 166 1065 166 1065 41 916 c 0,15,16
 15 884 15 884 28 869 c 0,17,18
 105 790 105 790 177 716 c 1,19,20
 98 637 98 637 30 568 c 0,21,22
 15 552 15 552 33 528 c 0,23,24
 122 411 122 411 299 254 c 0,25,26
 336 220 336 220 355 235 c 0,27,28
 423 298 423 298 508 382 c 1,29,30
 587 303 587 303 657 235 c 0,31,32
 673 220 673 220 697 238 c 0,33,34
 814 326 814 326 971 503 c 0,35,36
 1005 541 1005 541 990 560 c 0,37,38
 926 629 926 629 840 716 c 1,39,0
 911 790 911 790 989 871 c 0,1,2
EndSplineSet
Validated: 9
EndChar

StartChar: Oslash
Encoding: 216 216 152
Width: 1903
GlyphClass: 1
Flags: W
LayerCount: 2
Fore
SplineSet
853 999 m 1,0,1
 761 995 761 995 663 980 c 0,2,3
 558 968 558 968 539 849 c 1,4,5
 520 570 520 570 557 486 c 0,6,7
 584 429 584 429 636 410 c 1,8,9
 752 716 752 716 853 999 c 1,0,1
977 386 m 1,10,11
 1075 393 1075 393 1178 414 c 0,12,13
 1232 424 1232 424 1250 464 c 0,14,15
 1281 533 1281 533 1285 673 c 0,16,17
 1286 852 1286 852 1236 937 c 0,18,19
 1214 968 1214 968 1178 977 c 0,20,21
 1171 978 1171 978 1164 980 c 1,22,23
 1119 842 1119 842 1072 687 c 0,24,25
 1029 547 1029 547 977 386 c 1,10,11
1319 1424 m 1,26,27
 1418 1412 1418 1412 1517 1393 c 1,28,29
 1662 1357 1662 1357 1731 1204 c 0,30,31
 1816 1006 1816 1006 1770 349 c 1,32,33
 1729 68 1729 68 1564 33 c 1,34,35
 1177 -14 1177 -14 848 -8 c 1,36,37
 833 -54 833 -54 817 -101 c 1,38,39
 799 -141 799 -141 770 -151 c 1,40,41
 590 -173 590 -173 443 -146 c 1,42,43
 420 -133 420 -133 439 -97 c 1,44,45
 462 -40 462 -40 484 17 c 1,46,47
 380 30 380 30 284 49 c 1,48,49
 204 70 204 70 153 142 c 1,50,51
 28 341 28 341 30 765 c 1,52,53
 40 1095 40 1095 121 1255 c 1,54,55
 157 1343 157 1343 284 1373 c 0,56,57
 644 1451 644 1451 1002 1445 c 1,58,59
 1024 1515 1024 1515 1042 1575 c 0,60,61
 1051 1601 1051 1601 1077 1617 c 1,62,63
 1179 1652 1179 1652 1340 1626 c 1,64,65
 1381 1605 1381 1605 1363 1549 c 0,66,67
 1342 1489 1342 1489 1319 1424 c 1,26,27
EndSplineSet
Validated: 33
EndChar

StartChar: Ugrave
Encoding: 217 217 153
Width: 1576
GlyphClass: 1
Flags: W
LayerCount: 2
Fore
SplineSet
1380 1467 m 0,1,2
 1405 1471 1405 1471 1416 1447 c 1,3,4
 1536 782 1536 782 1438 261 c 1,5,6
 1402 116 1402 116 1300 50 c 1,7,8
 1105 -57 1105 -57 387 11 c 1,9,10
 106 53 106 53 71 217 c 1,11,12
 -20 808 -20 808 100 1423 c 0,13,14
 107 1454 107 1454 137 1454 c 0,15,16
 341 1455 341 1455 499 1388 c 0,17,18
 528 1372 528 1372 516 1323 c 1,19,20
 458 832 458 832 513 556 c 0,21,22
 527 503 527 503 570 488 c 1,23,24
 648 473 648 473 783 480 c 0,25,26
 931 492 931 492 1010 539 c 1,27,28
 1040 564 1040 564 1046 600 c 0,29,30
 1075 836 1075 836 996 1374 c 1,31,32
 986 1401 986 1401 1004 1409 c 0,33,0
 1123 1448 1123 1448 1380 1467 c 0,1,2
607 2066 m 0,35,36
 524 1970 524 1970 445 1834 c 1,37,38
 423 1787 423 1787 438 1766 c 0,39,40
 605 1592 605 1592 799 1513 c 1,41,42
 845 1501 845 1501 870 1525 c 0,43,44
 958 1601 958 1601 1031 1751 c 0,45,46
 1047 1792 1047 1792 1025 1817 c 1,47,48
 897 1917 897 1917 680 2060 c 0,49,34
 634 2092 634 2092 607 2066 c 0,35,36
EndSplineSet
Validated: 41
EndChar

StartChar: Uacute
Encoding: 218 218 154
Width: 1576
GlyphClass: 1
Flags: W
LayerCount: 2
Fore
SplineSet
1380 1467 m 0,1,2
 1405 1471 1405 1471 1416 1447 c 1,3,4
 1536 782 1536 782 1438 261 c 1,5,6
 1402 116 1402 116 1300 50 c 1,7,8
 1105 -57 1105 -57 387 11 c 1,9,10
 106 53 106 53 71 217 c 1,11,12
 -20 808 -20 808 100 1423 c 0,13,14
 107 1454 107 1454 137 1454 c 0,15,16
 341 1455 341 1455 499 1388 c 0,17,18
 528 1372 528 1372 516 1323 c 1,19,20
 458 832 458 832 513 556 c 0,21,22
 527 503 527 503 570 488 c 1,23,24
 648 473 648 473 783 480 c 0,25,26
 931 492 931 492 1010 539 c 1,27,28
 1040 564 1040 564 1046 600 c 0,29,30
 1075 836 1075 836 996 1374 c 1,31,32
 986 1401 986 1401 1004 1409 c 0,33,0
 1123 1448 1123 1448 1380 1467 c 0,1,2
856 2064 m 0,34,35
 639 1921 639 1921 511 1821 c 1,36,37
 489 1796 489 1796 505 1755 c 0,38,39
 578 1605 578 1605 666 1529 c 0,40,41
 691 1505 691 1505 737 1517 c 1,42,43
 931 1596 931 1596 1098 1770 c 0,44,45
 1113 1791 1113 1791 1091 1838 c 1,46,47
 1012 1974 1012 1974 929 2070 c 0,48,49
 902 2096 902 2096 856 2064 c 0,34,35
EndSplineSet
Validated: 41
EndChar

StartChar: Ucircumflex
Encoding: 219 219 155
Width: 1576
GlyphClass: 1
Flags: W
LayerCount: 2
Fore
SplineSet
1380 1467 m 0,1,2
 1405 1471 1405 1471 1416 1447 c 1,3,4
 1536 782 1536 782 1438 261 c 1,5,6
 1402 116 1402 116 1300 50 c 1,7,8
 1105 -57 1105 -57 387 11 c 1,9,10
 106 53 106 53 71 217 c 1,11,12
 -20 808 -20 808 100 1423 c 0,13,14
 107 1454 107 1454 137 1454 c 0,15,16
 341 1455 341 1455 499 1388 c 0,17,18
 528 1372 528 1372 516 1323 c 1,19,20
 458 832 458 832 513 556 c 0,21,22
 527 503 527 503 570 488 c 1,23,24
 648 473 648 473 783 480 c 0,25,26
 931 492 931 492 1010 539 c 1,27,28
 1040 564 1040 564 1046 600 c 0,29,30
 1075 836 1075 836 996 1374 c 1,31,32
 986 1401 986 1401 1004 1409 c 0,33,0
 1123 1448 1123 1448 1380 1467 c 0,1,2
724 2072 m 0,35,36
 530 1993 530 1993 363 1819 c 0,37,38
 348 1798 348 1798 370 1751 c 1,39,40
 449 1615 449 1615 532 1519 c 0,41,42
 559 1492 559 1492 605 1524 c 0,43,44
 684 1576 684 1576 751 1622 c 1,45,46
 818 1576 818 1576 897 1524 c 0,47,48
 943 1492 943 1492 970 1519 c 0,49,50
 1052 1615 1052 1615 1131 1751 c 1,51,52
 1153 1798 1153 1798 1139 1819 c 1,53,54
 971 1993 971 1993 778 2072 c 0,55,34
 749 2080 749 2080 724 2072 c 0,35,36
EndSplineSet
Validated: 41
EndChar

StartChar: Udieresis
Encoding: 220 220 156
Width: 1576
GlyphClass: 1
Flags: W
LayerCount: 2
Fore
SplineSet
1380 1467 m 0,1,2
 1405 1471 1405 1471 1416 1447 c 1,3,4
 1536 782 1536 782 1438 261 c 1,5,6
 1402 116 1402 116 1300 50 c 1,7,8
 1105 -57 1105 -57 387 11 c 1,9,10
 106 53 106 53 71 217 c 1,11,12
 -20 808 -20 808 100 1423 c 0,13,14
 107 1454 107 1454 137 1454 c 0,15,16
 341 1455 341 1455 499 1388 c 0,17,18
 528 1372 528 1372 516 1323 c 1,19,20
 458 832 458 832 513 556 c 0,21,22
 527 503 527 503 570 488 c 1,23,24
 648 473 648 473 783 480 c 0,25,26
 931 492 931 492 1010 539 c 1,27,28
 1040 564 1040 564 1046 600 c 0,29,30
 1075 836 1075 836 996 1374 c 1,31,32
 986 1401 986 1401 1004 1409 c 0,33,0
 1123 1448 1123 1448 1380 1467 c 0,1,2
842 1600 m 0,35,36
 968 1589 968 1589 1125 1600 c 0,37,38
 1176 1607 1176 1607 1185 1626 c 1,39,40
 1232 1818 1232 1818 1186 1984 c 1,41,42
 1169 2020 1169 2020 1135 2025 c 0,43,44
 1022 2048 1022 2048 858 2027 c 0,45,46
 815 2019 815 2019 807 1992 c 1,47,48
 792 1814 792 1814 805 1651 c 0,49,34
 805 1605 805 1605 842 1600 c 0,35,36
726 1651 m 0,50,51
 739 1814 739 1814 724 1992 c 1,52,53
 716 2019 716 2019 673 2027 c 0,54,55
 509 2048 509 2048 396 2025 c 0,56,57
 362 2020 362 2020 345 1984 c 1,58,59
 299 1818 299 1818 346 1626 c 1,60,61
 355 1607 355 1607 406 1600 c 0,62,63
 563 1589 563 1589 689 1600 c 0,64,65
 726 1605 726 1605 726 1651 c 0,50,51
EndSplineSet
Validated: 41
EndChar

StartChar: germandbls
Encoding: 223 223 159
Width: 1725
GlyphClass: 1
Flags: W
LayerCount: 2
Fore
SplineSet
1399 -21 m 1,1,2
 1547 22 1547 22 1597 132 c 1,3,4
 1692 419 1692 419 1530 653 c 0,5,6
 1507 680 1507 680 1473 699 c 1,7,8
 1617 730 1617 730 1543 1167 c 1,9,10
 1503 1354 1503 1354 1381 1401 c 1,11,12
 1127 1485 1127 1485 737 1480 c 0,13,14
 536 1476 536 1476 388 1422 c 0,15,16
 207 1355 207 1355 204 1082 c 1,17,18
 186 542 186 542 208 63 c 0,19,20
 211 41 211 41 239 27 c 1,21,22
 364 0 364 0 608 -32 c 0,23,24
 675 -39 675 -39 710 -3 c 1,25,26
 703 1013 703 1013 751 1036 c 0,27,28
 840 1079 840 1079 1009 1049 c 1,29,30
 1112 1036 1112 1036 1126 994 c 1,31,32
 1129 950 1129 950 1125 919 c 0,33,34
 1122 879 1122 879 1088 846 c 0,35,36
 1068 822 1068 822 1040 817 c 0,37,38
 915 785 915 785 805 793 c 1,39,-1
 800 536 l 1,40,41
 830 536 830 536 869 537 c 0,42,43
 1078 530 1078 530 1100 502 c 0,44,45
 1136 455 1136 455 1135 406 c 1,46,47
 1139 383 1139 383 1127 336 c 1,48,49
 1115 310 1115 310 1074 302 c 0,50,51
 955 280 955 280 794 347 c 1,52,-1
 792 16 l 1,53,0
 1103 -63 1103 -63 1399 -21 c 1,1,2
EndSplineSet
Validated: 41
EndChar

StartChar: divide
Encoding: 247 247 183
Width: 658
GlyphClass: 1
Flags: W
LayerCount: 2
Fore
SplineSet
577 228 m 0,1,2
 590 354 590 354 577 511 c 1,3,4
 568 562 568 562 544 571 c 1,5,6
 307 618 307 618 103 572 c 1,7,8
 58 555 58 555 52 521 c 0,9,10
 23 408 23 408 49 244 c 0,11,12
 59 201 59 201 92 193 c 1,13,14
 254 184 254 184 514 191 c 0,15,0
 570 191 570 191 577 228 c 0,1,2
577 865 m 0,17,18
 590 991 590 991 577 1148 c 1,19,20
 568 1199 568 1199 544 1208 c 1,21,22
 307 1255 307 1255 103 1209 c 1,23,24
 58 1192 58 1192 52 1158 c 0,25,26
 23 1045 23 1045 49 881 c 0,27,28
 59 838 59 838 92 830 c 1,29,30
 254 821 254 821 514 828 c 0,31,16
 570 828 570 828 577 865 c 0,17,18
577 228 m 0,33,34
 590 354 590 354 577 511 c 1,35,36
 568 562 568 562 544 571 c 1,37,38
 307 618 307 618 103 572 c 1,39,40
 58 555 58 555 52 521 c 0,41,42
 23 408 23 408 49 244 c 0,43,44
 59 201 59 201 92 193 c 1,45,46
 254 184 254 184 514 191 c 0,47,32
 570 191 570 191 577 228 c 0,33,34
EndSplineSet
Validated: 37
EndChar

StartChar: circumflex
Encoding: 710 710 193
Width: 1014
GlyphClass: 1
Flags: W
LayerCount: 2
Fore
SplineSet
207 2063 m 0,1,2
 13 1984 13 1984 -154 1810 c 0,3,4
 -169 1789 -169 1789 -147 1742 c 1,5,6
 -68 1606 -68 1606 15 1510 c 0,7,8
 42 1483 42 1483 88 1515 c 0,9,10
 167 1567 167 1567 234 1613 c 1,11,12
 301 1567 301 1567 380 1515 c 0,13,14
 426 1483 426 1483 453 1510 c 0,15,16
 535 1606 535 1606 614 1742 c 1,17,18
 636 1789 636 1789 622 1810 c 1,19,20
 454 1984 454 1984 261 2063 c 0,21,0
 232 2071 232 2071 207 2063 c 0,1,2
EndSplineSet
Validated: 41
EndChar

StartChar: ring
Encoding: 730 730 198
Width: 691
GlyphClass: 1
Flags: W
LayerCount: 2
Fore
SplineSet
55 1589 m 0,0,1
 -1 1656 -1 1656 7 1947 c 1,2,3
 15 2025 15 2025 109 2069 c 0,4,5
 202 2110 202 2110 467 2090 c 0,6,7
 583 2079 583 2079 604 1924 c 1,8,9
 622 1693 622 1693 560 1597 c 0,10,11
 510 1526 510 1526 290 1527 c 0,12,13
 103 1530 103 1530 55 1589 c 0,0,1
235 1761 m 0,14,15
 246 1723 246 1723 278 1717 c 0,16,17
 367 1705 367 1705 377 1739 c 1,18,19
 394 1884 394 1884 350 1899 c 0,20,21
 292 1917 292 1917 242 1899 c 0,22,23
 205 1884 205 1884 235 1761 c 0,14,15
EndSplineSet
Validated: 33
EndChar

StartChar: tilde
Encoding: 732 732 200
Width: 1075
GlyphClass: 1
Flags: W
LayerCount: 2
Fore
SplineSet
940 1654 m 0,0,1
 970 1663 970 1663 968 1735 c 2,2,-1
 970 2043 l 1,3,4
 962 2082 962 2082 944 2073 c 1,5,6
 676 2019 676 2019 517 2061 c 1,7,8
 168 2110 168 2110 51 2076 c 1,9,10
 34 2076 34 2076 26 2034 c 1,11,-1
 28 1701 l 2,12,13
 26 1632 26 1632 50 1632 c 1,14,15
 147 1675 147 1675 240 1684 c 1,16,17
 366 1690 366 1690 529 1631 c 1,18,19
 732 1586 732 1586 940 1654 c 0,0,1
EndSplineSet
Validated: 41
EndChar

StartChar: Euro
Encoding: 8364 8364 220
Width: 1555
GlyphClass: 1
Flags: W
LayerCount: 2
Fore
SplineSet
1366 1004 m 0,0,1
 1357 986 1357 986 1331 994 c 0,2,3
 983 1077 983 1077 747 1036 c 0,4,5
 711 1028 711 1028 686 997 c 1,6,7
 639 915 639 915 625 738 c 1,8,9
 615 554 615 554 643 482 c 0,10,11
 658 440 658 440 711 428 c 1,12,13
 977 406 977 406 1289 452 c 1,14,15
 1338 467 1338 467 1354 439 c 0,16,17
 1421 284 1421 284 1450 102 c 0,18,19
 1455 80 1455 80 1419 63 c 1,20,21
 953 -47 953 -47 362 13 c 1,22,23
 198 39 198 39 156 318 c 1,24,25
 88 1032 88 1032 195 1233 c 1,26,27
 261 1338 261 1338 406 1382 c 1,28,29
 927 1507 927 1507 1443 1356 c 0,30,31
 1467 1347 1467 1347 1463 1321 c 0,32,33
 1423 1108 1423 1108 1366 1004 c 0,0,1
1132 931 m 0,34,35
 1142 826 1142 826 1128 770 c 0,36,37
 1124 758 1124 758 1098 757 c 0,38,39
 690 755 690 755 69 756 c 0,40,41
 46 757 46 757 40 774 c 0,42,43
 19 855 19 855 42 942 c 0,44,45
 47 950 47 950 65 950 c 0,46,47
 754 957 754 957 1101 954 c 0,48,49
 1128 953 1128 953 1132 931 c 0,34,35
1132 681 m 0,50,51
 1142 576 1142 576 1128 520 c 0,52,53
 1124 508 1124 508 1098 507 c 0,54,55
 690 505 690 505 69 506 c 0,56,57
 46 507 46 507 40 524 c 0,58,59
 19 605 19 605 42 692 c 0,60,61
 47 700 47 700 65 700 c 0,62,63
 754 707 754 707 1101 704 c 0,64,65
 1128 703 1128 703 1132 681 c 0,50,51
EndSplineSet
Validated: 37
EndChar

StartChar: OE
Encoding: 338 338 236
Width: 2616
GlyphClass: 1
Flags: W
LayerCount: 2
Fore
SplineSet
1178 414 m 0,0,1
 1232 424 1232 424 1250 464 c 0,2,3
 1281 533 1281 533 1285 673 c 0,4,5
 1286 852 1286 852 1236 937 c 0,6,7
 1214 968 1214 968 1178 977 c 0,8,9
 946 1022 946 1022 663 980 c 0,10,11
 558 968 558 968 539 849 c 1,12,13
 520 570 520 570 557 486 c 0,14,15
 587 422 587 422 650 406 c 0,16,17
 898 357 898 357 1178 414 c 0,0,1
1431 18 m 1,18,19
 766 -48 766 -48 284 49 c 1,20,21
 204 70 204 70 153 142 c 1,22,23
 28 341 28 341 30 765 c 1,24,25
 40 1095 40 1095 121 1255 c 1,26,27
 157 1343 157 1343 284 1373 c 0,28,29
 759 1476 759 1476 1228 1433 c 1,30,31
 1721 1473 1721 1473 2387 1456 c 0,32,33
 2417 1457 2417 1457 2424 1429 c 0,34,35
 2454 1292 2454 1292 2438 1078 c 0,36,37
 2434 1029 2434 1029 2402 1026 c 0,38,39
 2105 1025 2105 1025 1806 1015 c 1,40,41
 1807 967 1807 967 1808 919 c 1,42,43
 2068 926 2068 926 2236 925 c 0,44,45
 2260 924 2260 924 2264 886 c 0,46,47
 2280 711 2280 711 2260 602 c 0,48,49
 2256 581 2256 581 2234 580 c 0,50,51
 2047 574 2047 574 1811 563 c 1,52,53
 1811 512 1811 512 1810 461 c 1,54,55
 2248 474 2248 474 2495 490 c 0,56,57
 2522 488 2522 488 2526 439 c 0,58,59
 2544 216 2544 216 2522 78 c 0,60,61
 2518 50 2518 50 2493 49 c 0,62,63
 2141 17 2141 17 1612 17 c 0,64,65
 1512 14 1512 14 1431 18 c 1,18,19
EndSplineSet
Validated: 33
EndChar

StartChar: perthousand
Encoding: 8240 8240 237
Width: 2613
GlyphClass: 1
Flags: W
LayerCount: 2
Fore
SplineSet
1157 1408 m 0,1,2
 1039 1235 1039 1235 846 972 c 1,3,4
 515 540 515 540 97 44 c 1,5,6
 67 15 67 15 99 4 c 1,7,8
 315 -18 315 -18 582 0 c 1,9,10
 628 8 628 8 658 41 c 1,11,12
 926 410 926 410 1113 684 c 0,13,14
 1284 937 1284 937 1432 1131 c 0,15,16
 1544 1272 1544 1272 1631 1387 c 0,17,18
 1664 1433 1664 1433 1605 1450 c 1,19,20
 1367 1471 1367 1471 1213 1443 c 1,21,0
 1173 1430 1173 1430 1157 1408 c 0,1,2
51 779 m 0,22,23
 -10 869 -10 869 -1 1260 c 1,24,25
 7 1365 7 1365 108 1424 c 0,26,27
 209 1479 209 1479 494 1451 c 0,28,29
 618 1436 618 1436 641 1228 c 1,30,31
 661 919 661 919 594 790 c 1,32,33
 539 694 539 694 303 696 c 0,34,35
 102 700 102 700 51 779 c 0,22,23
243 1010 m 0,36,37
 256 960 256 960 290 951 c 0,38,39
 386 936 386 936 397 981 c 1,40,41
 415 1175 415 1175 368 1195 c 0,42,43
 306 1219 306 1219 251 1195 c 0,44,45
 212 1175 212 1175 243 1010 c 0,36,37
1440 738 m 1,47,48
 1676 739 1676 739 1731 643 c 1,49,50
 1798 515 1798 515 1778 205 c 1,51,52
 1755 -3 1755 -3 1631 -18 c 0,53,54
 1346 -45 1346 -45 1245 9 c 1,55,56
 1144 68 1144 68 1136 173 c 1,57,58
 1127 565 1127 565 1188 654 c 0,59,46
 1239 733 1239 733 1440 738 c 1,47,48
1388 238 m 0,61,62
 1443 214 1443 214 1505 238 c 0,63,64
 1552 258 1552 258 1534 452 c 1,65,66
 1523 498 1523 498 1427 483 c 0,67,68
 1393 474 1393 474 1380 423 c 0,69,60
 1349 258 1349 258 1388 238 c 0,61,62
2188 738 m 1,71,72
 2424 739 2424 739 2479 643 c 1,73,74
 2546 515 2546 515 2526 205 c 1,75,76
 2503 -3 2503 -3 2379 -18 c 0,77,78
 2094 -45 2094 -45 1993 9 c 1,79,80
 1892 68 1892 68 1884 173 c 1,81,82
 1875 565 1875 565 1936 654 c 0,83,70
 1987 733 1987 733 2188 738 c 1,71,72
2136 238 m 0,85,86
 2191 214 2191 214 2253 238 c 0,87,88
 2300 258 2300 258 2282 452 c 1,89,90
 2271 498 2271 498 2175 483 c 0,91,92
 2141 474 2141 474 2128 423 c 0,93,84
 2097 258 2097 258 2136 238 c 0,85,86
EndSplineSet
Validated: 41
EndChar

StartChar: Aogonek
Encoding: 260 260 238
Width: 1702
Flags: W
LayerCount: 2
Fore
SplineSet
1073 274 m 1,1,2
 1159 -28 1159 -28 1168 -53 c 0,3,4
 1176 -76 1176 -76 1230 -66 c 1,5,6
 1269 -53 1269 -53 1277 -76.59765625 c 0,7,8
 1312.61413451 -181.902245048 1312.61413451 -181.902245048 1357 -186.405273438 c 0,9,10
 1556 -209 1556 -209 1547 -194 c 0,11,12
 1491.02940865 -23.2205661598 1491.02940865 -23.2205661598 1613 57 c 0,13,14
 1638 83 1638 83 1637 90 c 0,15,16
 1502 777 1502 777 1310 1410 c 0,17,18
 1300 1443 1300 1443 1250 1449 c 0,19,20
 878 1491 878 1491 427 1436 c 0,21,22
 394 1432 394 1432 386 1410 c 0,23,24
 244 962 244 962 48 81 c 0,25,26
 44 63 44 63 73 48 c 0,27,28
 238 -35 238 -35 441 -76 c 0,29,30
 495 -87 495 -87 503 -63 c 0,31,32
 556 97 556 97 606 271 c 1,33,0
 856 257 856 257 1073 274 c 1,1,2
927 889 m 1,34,35
 958 755 958 755 992 623 c 1,36,37
 861 622 861 622 702 620 c 1,38,39
 737 754 737 754 768 888 c 1,40,41
 850 888 850 888 927 889 c 1,34,35
EndSplineSet
Validated: 524329
EndChar

StartChar: Eogonek
Encoding: 280 280 239
Width: 1487
Flags: W
LayerCount: 2
Fore
SplineSet
687 549 m 1,1,2
 923 558 923 558 1110 566 c 0,3,4
 1132 567 1132 567 1136 588 c 0,5,6
 1158 705 1158 705 1140 872 c 0,7,8
 1136 910 1136 910 1112 911 c 0,9,10
 944 912 944 912 684 905 c 1,11,12
 683 953 683 953 682 1001 c 1,13,14
 1005 1012 1005 1012 1278 1012 c 0,15,16
 1310 1012 1310 1012 1314 1064 c 0,17,18
 1332 1298 1332 1298 1300 1415 c 0,19,20
 1293 1441 1293 1441 1263 1442 c 0,21,22
 622 1457 622 1457 41 1414 c 0,23,24
 14 1412 14 1412 8 1373 c 1,25,26
 11 1158 11 1158 49 988 c 0,27,28
 53 970 53 970 77 971 c 0,29,30
 123 974 123 974 168 977 c 1,31,32
 162 556 162 556 186 38 c 0,33,34
 187 16 187 16 218 12 c 0,35,36
 329 -2 329 -2 488 3 c 5,37,38
 680 15 680 15 645 -64 c 0,39,40
 550.256388776 -279.325946333 550.256388776 -279.325946333 655 -274 c 0,41,42
 903 -262 903 -262 845 -168.754882812 c 0,43,44
 776.162840269 -62.2364299776 776.162840269 -62.2364299776 899 -52 c 0,45,46
 954 -45 954 -45 1369 35 c 0,47,48
 1395 40 1395 40 1398 64 c 0,49,50
 1420 202 1420 202 1402 425 c 0,51,52
 1398 477 1398 477 1371 476 c 0,53,54
 966 455 966 455 686 447 c 1,55,0
 687 498 687 498 687 549 c 1,1,2
EndSplineSet
Validated: 524329
EndChar

StartChar: Cacute
Encoding: 262 262 240
Width: 1479
Flags: W
LayerCount: 2
Fore
SplineSet
572 1503 m 1048,0,1
580 1499 m 1,2,-1
 744 1495 l 1,3,-1
 776 1607 l 1,4,-1
 616 1621 l 1,5,-1
 580 1499 l 1,2,-1
1401 151 m 0,6,7
 1405 126 1405 126 1381 115 c 0,8,9
 824 -75 824 -75 303 23 c 1,10,11
 158 59 158 59 92 161 c 1,12,13
 -15 356 -15 356 53 1074 c 1,14,15
 95 1355 95 1355 259 1390 c 1,16,17
 850 1481 850 1481 1316 1395 c 1,18,19
 1352 1380 1352 1380 1347 1358 c 0,20,21
 1318 1174 1318 1174 1251 1016 c 0,22,23
 1235 987 1235 987 1186 999 c 1,24,25
 874 1029 874 1029 598 948 c 0,26,27
 545 934 545 934 530 891 c 1,28,29
 515 813 515 813 522 678 c 0,30,31
 536 502 536 502 583 423 c 1,32,33
 608 393 608 393 644 387 c 0,34,35
 880 358 880 358 1269 471 c 0,36,37
 1295 481 1295 481 1304 463 c 0,38,39
 1361 362 1361 362 1401 151 c 0,6,7
EndSplineSet
Validated: 41
EndChar

StartChar: Lslash
Encoding: 321 321 241
Width: 1335
Flags: W
LayerCount: 2
Fore
SplineSet
1205 14 m 1,1,2
 1232 20 1232 20 1237 54 c 0,3,4
 1258 187 1258 187 1240 405 c 0,5,6
 1236 456 1236 456 1211 456 c 0,7,8
 1020 456 1020 456 533 443 c 1,9,10
 503 779 503 779 570.71875 783 c 4,11,12
 775 797 775 797 768.040039062 981 c 4,13,14
 764 1103 764 1103 562.122070312 1103 c 0,15,16
 515 1103 515 1103 515 1398 c 0,17,18
 515 1416 515 1416 494 1418 c 0,19,20
 267 1441 267 1441 74 1420 c 0,21,22
 29 1415 29 1415 30 1395 c 0,23,24
 55 1041 55 1041 -61.900390625 1039 c 0,25,26
 -176 1037 -176 1037 -200 918 c 0,27,28
 -240.878285232 714.605605187 -240.878285232 714.605605187 12.7470703125 752 c 0,29,30
 8 751 8 751 33 45 c 0,31,32
 34 16 34 16 65 9 c 1,33,0
 543 -16 543 -16 1205 14 c 1,1,2
EndSplineSet
Validated: 524329
EndChar

StartChar: Nacute
Encoding: 323 323 242
Width: 1558
Flags: W
LayerCount: 2
Fore
SplineSet
695 1524 m 0,0,1
 761 1335 761 1335 938 1539 c 0,2,3
 1179.73683022 1835.86816569 1179.73683022 1835.86816569 869 1743 c 0,4,5
 685.687956204 1547.79744526 685.687956204 1547.79744526 695 1524 c 0,0,1
941 1521 m 24,6,-1
 941 1521 l 24,6,-1
938 4 m 0,7,8
 965 -29 965 -29 981 -31 c 0,9,10
 1241 -35 1241 -35 1405 60 c 0,11,12
 1452 87 1452 87 1457 119 c 1,13,14
 1451 791 1451 791 1417 1374 c 0,15,16
 1417 1406 1417 1406 1385 1415 c 0,17,18
 1280 1450 1280 1450 1025 1461 c 0,19,20
 969 1463 969 1463 966 1429 c 0,21,22
 957 1224 957 1224 950 890 c 1,23,24
 733 1215 733 1215 566 1443 c 0,25,26
 555 1459 555 1459 545 1460 c 0,27,28
 251 1466 251 1466 110 1371 c 0,29,30
 58 1339 58 1339 58 1313 c 0,31,32
 64 641 64 641 98 58 c 0,33,34
 99 26 99 26 130 16 c 0,35,36
 235 -18 235 -18 490 -29 c 0,37,38
 546 -31 546 -31 549 3 c 0,39,40
 558 202 558 202 565 523 c 1,41,42
 775 204 775 204 938 4 c 0,7,8
EndSplineSet
Validated: 524329
EndChar

StartChar: Sacute
Encoding: 346 346 243
Width: 1434
Flags: W
LayerCount: 2
Fore
SplineSet
789 1554 m 0,0,1
 611 1425 611 1425 597 1569 c 0,2,3
 592 1621 592 1621 617 1640 c 0,4,5
 929.598566339 1877.85304668 929.598566339 1877.85304668 839 1619 c 0,6,7
 825 1580 825 1580 789 1554 c 0,0,1
523 959 m 0,8,9
 528 991 528 991 576 998 c 0,10,11
 737 1012 737 1012 1218 973 c 1,12,13
 1257 965 1257 965 1269 984 c 1,14,15
 1315 1255 1315 1255 1319 1354 c 0,16,17
 1323 1369 1323 1369 1294 1379 c 1,18,19
 717 1496 717 1496 253 1435 c 1,20,21
 108 1403 108 1403 59 1290 c 1,22,23
 -42 927 -42 927 120 664 c 1,24,25
 172 595 172 595 286 570 c 0,26,27
 492 521 492 521 818 532 c 1,28,29
 890 520 890 520 853 474 c 0,30,31
 829 445 829 445 787 436 c 1,32,33
 626 421 626 421 145 461 c 1,34,35
 107 469 107 469 94 449 c 1,36,37
 49 179 49 179 45 79 c 0,38,39
 41 65 41 65 69 54 c 1,40,41
 646 -63 646 -63 1110 -1 c 1,42,43
 1255 30 1255 30 1304 144 c 1,44,45
 1406 507 1406 507 1244 770 c 1,46,47
 1192 839 1192 839 1067 872 c 1,48,49
 835 925 835 925 612 912 c 1,50,51
 508 900 508 900 523 959 c 0,8,9
EndSplineSet
Validated: 524329
EndChar

StartChar: Zacute
Encoding: 377 377 244
Width: 1558
Flags: W
LayerCount: 2
Fore
SplineSet
657 1499 m 0,0,1
 657 1514 657 1514 803 1638 c 4,2,3
 908 1726 908 1726 941 1638 c 4,4,5
 973 1555 973 1555 831 1508 c 0,6,7
 736 1477 736 1477 717.5 1475 c 0,8,9
 658 1470 658 1470 657 1499 c 0,0,1
1488 881 m 0,10,11
 1522 908 1522 908 1524 924 c 0,12,13
 1537 1194 1537 1194 1447 1368 c 0,14,15
 1422 1417 1422 1417 1390 1424 c 1,16,17
 718 1440 718 1440 114 1424 c 0,18,19
 82 1425 82 1425 72 1392 c 0,20,21
 34 1284 34 1284 30 986 c 0,22,23
 26 928 26 928 60 924 c 0,24,25
 264 907 264 907 603 923 c 1,26,27
 271 709 271 709 38 543 c 0,28,29
 21 532 21 532 20 495 c 0,30,31
 25 163 25 163 95 67 c 1,32,33
 125 12 125 12 151 11 c 0,34,35
 823 -5 823 -5 1427 11 c 0,36,37
 1459 11 1459 11 1470 43 c 0,38,39
 1507 151 1507 151 1511 444 c 0,40,41
 1515 502 1515 502 1481 506 c 0,42,43
 1283 522 1283 522 951 509 c 1,44,45
 1282 718 1282 718 1488 881 c 0,10,11
EndSplineSet
Validated: 524329
EndChar

StartChar: Zdotaccent
Encoding: 379 379 245
Width: 1558
Flags: W
LayerCount: 2
Fore
SplineSet
590 1472 m 24,0,1
 479.819959991 1567.85663481 479.819959991 1567.85663481 588 1654 c 28,2,3
 706 1748 706 1748 806 1644 c 4,4,5
 887.116768666 1558.92631579 887.116768666 1558.92631579 788 1480 c 24,6,7
 680 1394 680 1394 590 1472 c 24,0,1
1488 881 m 0,8,9
 1522 908 1522 908 1524 924 c 0,10,11
 1537 1194 1537 1194 1447 1368 c 0,12,13
 1422 1417 1422 1417 1390 1424 c 1,14,15
 718 1440 718 1440 114 1424 c 0,16,17
 82 1425 82 1425 72 1392 c 0,18,19
 34 1284 34 1284 30 986 c 0,20,21
 26 928 26 928 60 924 c 0,22,23
 264 907 264 907 603 923 c 1,24,25
 271 709 271 709 38 543 c 0,26,27
 21 532 21 532 20 495 c 0,28,29
 25 163 25 163 95 67 c 1,30,31
 125 12 125 12 151 11 c 0,32,33
 823 -5 823 -5 1427 11 c 0,34,35
 1459 11 1459 11 1470 43 c 0,36,37
 1507 151 1507 151 1511 444 c 0,38,39
 1515 502 1515 502 1481 506 c 0,40,41
 1283 522 1283 522 951 509 c 1,42,43
 1282 718 1282 718 1488 881 c 0,8,9
EndSplineSet
Validated: 524329
EndChar
